<svg width="1280" height="969" viewBox="0 0 1280 969" fill="none" xmlns="http://www.w3.org/2000/svg">
<path d="M-132 822H1273V0H-132V822Z" fill="#D9F1FF"/>
<path d="M153.63 529.127H129.465V504.788H153.63V529.127Z" fill="#FFB84D"/>
<path d="M1090.33 504.121H1161.6V493.864H1090.33V504.121Z" fill="#2E3B59"/>
<path d="M1290 526.957L1283.03 609.79L1272.19 738.961L1255.06 942.66C1255.06 942.66 235.212 898.67 226.49 898.67C217.75 898.67 226.49 713.909 226.49 713.909C226.49 713.909 325.729 635.629 510.052 567.311C574.832 543.29 650.124 520.491 735.304 502.758C750.385 499.622 765.258 496.822 779.907 494.344C1083.31 442.905 1290 526.957 1290 526.957Z" fill="#00A87B"/>
<path d="M1290.39 548.279L1283.43 631.112L1272.58 760.283L1255.46 963.982C1255.46 963.982 235.607 919.993 226.884 919.993C218.144 919.993 226.884 735.231 226.884 735.231C226.884 735.231 326.123 656.953 510.447 588.635C575.227 564.612 650.518 541.813 735.699 524.08C750.78 520.944 765.653 518.145 780.302 515.667C1083.71 464.227 1290.39 548.279 1290.39 548.279Z" fill="#00946C"/>
<path d="M1283.03 609.792L1272.18 738.962L1110.91 793.104L768.064 751.303L593.358 691.915C593.358 691.915 528.002 606.395 510.047 567.313C574.827 543.292 650.119 520.492 735.299 502.76C750.38 499.624 765.253 496.824 779.902 494.346C861.744 546.798 1007.31 624.466 1148.04 621.536C1204.35 620.363 1248.47 615.776 1283.03 609.792Z" fill="#4F6F52"/>
<path d="M939.265 686.957L936.561 685.066L933.016 682.586C933.016 682.586 953.461 598.736 976.852 591.938C979.766 591.091 982.718 591.436 985.69 593.288C1012.52 610 939.265 686.957 939.265 686.957Z" fill="#FFB84D"/>
<path d="M936.561 685.068L933.016 682.588C933.016 682.588 953.461 598.738 976.852 591.94C965.017 602.467 952.228 632.815 946.524 648.099C939.647 666.536 940.01 671.091 940.022 671.226C940.331 670.694 967.236 623.814 970.609 623.507C973.428 623.249 945.954 669.415 936.561 685.068Z" fill="#FF962E"/>
<path d="M930.311 687.17L926.36 686.131L921.176 684.766C921.176 684.766 909.431 578.257 933.809 560.27C936.845 558.029 940.431 557.163 944.68 558.04C983.031 565.969 930.311 687.17 930.311 687.17Z" fill="#FF962E"/>
<path d="M926.36 686.129L921.176 684.764C921.176 684.764 909.431 578.255 933.809 560.268C924.481 577.627 922.452 618.498 922.288 638.761C922.093 663.207 924.449 668.361 924.521 668.51C924.654 667.757 936.122 601.55 939.921 599.74C943.097 598.227 930.665 663.846 926.36 686.129Z" fill="#DB7B1D"/>
<path d="M929.412 688.918L926.216 689.713L922.025 690.754C922.025 690.754 873.044 619.895 883.435 597.72C884.728 594.957 886.937 592.954 890.279 591.929C920.46 582.69 929.412 688.918 929.412 688.918Z" fill="#FFB84D"/>
<path d="M926.216 689.713L922.025 690.754C922.025 690.754 873.044 619.895 883.435 597.72C883.459 613.622 897.626 643.343 905.248 657.753C914.444 675.135 918.078 677.873 918.188 677.95C917.993 677.365 900.834 626.05 902.833 623.297C904.505 620.997 920.757 672.27 926.216 689.713Z" fill="#FF962E"/>
<path d="M1056.72 690.316H1170.82L1130.88 610.698H1016.79L1056.72 690.316Z" fill="#02659E"/>
<path d="M1094.88 697.322H945.344L988.563 600.684H1138.11L1094.88 697.322Z" fill="#B6E2FC"/>
<path d="M1089.74 697.322H940.199L983.419 600.684H1132.96L1089.74 697.322Z" fill="white"/>
<path d="M1127.23 604.418L1118.65 623.599L1116.98 627.328L1100.84 663.423L1099.17 667.153L1087.34 693.594H945.922L954.373 674.71L957.75 667.153L959.418 663.423L962.982 655.462L975.559 627.328L977.232 623.599L985.811 604.418H1127.23Z" fill="#2E3B59"/>
<path d="M1094.09 604.418L1027.87 693.594H968.016L1064.28 604.418H1094.09Z" fill="#02659E"/>
<path d="M1050.46 604.417L954.375 674.709L957.752 667.152L959.42 663.422L962.984 655.461L1039 604.417H1050.46Z" fill="#02659E"/>
<path d="M1114.07 604.418L1053.97 693.594H1040.76L1106.21 604.418H1114.07Z" fill="#02659E"/>
<path d="M1046.63 663.423H1004.24L1020.38 627.328H1062.77L1046.63 663.423ZM1116.98 627.328L1118.65 623.599H1068.5L1077.08 604.418H1073.01L1064.44 623.599H1022.05L1030.63 604.418H1026.57L1017.99 623.599H977.236L975.563 627.328H1016.33L1000.18 663.423H959.422L957.754 667.153H998.51L986.687 693.594H990.746L1002.58 667.153H1044.96L1033.13 693.594H1037.19L1049.02 667.153H1099.17L1100.84 663.423H1050.69L1066.83 627.328H1116.98Z" fill="white"/>
<path d="M-52 605.96C-52 605.96 48.6446 488.043 270.474 504.593C492.301 521.142 757.265 641.126 983.202 672.157C1209.14 703.189 1299.51 643.195 1299.51 643.195V903.854H-39.6766L-52 605.96Z" fill="#86A789"/>
<path d="M-61 632.958C-61 632.958 39.6446 515.043 261.474 531.591C483.301 548.142 748.265 668.128 974.202 699.157C1200.14 730.189 1290.51 670.195 1290.51 670.195V930.854H-48.6766L-61 632.958Z" fill="#739072"/>
<path d="M743.005 875.56C689.467 826.009 345.082 664.24 184.466 642.381C23.8503 620.521 -87.5665 684.644 -87.5665 684.644L-144 885.761C-144 885.761 -90.4608 914.908 3.59277 917.825C97.6475 920.739 246.688 938.228 246.688 938.228L570.813 968.832C570.813 968.832 796.543 925.111 743.005 875.56Z" fill="#4F6F52"/>
<path d="M52.1992 683.077C52.1992 683.077 53.1822 635.565 92.0016 623.686C130.823 611.81 161.781 656.847 161.781 656.847C161.781 656.847 177.998 638.535 201.584 643.978C225.171 649.422 235.49 684.068 235.49 684.068C235.49 684.068 274.311 669.714 294.95 687.532C315.588 705.349 307.233 737.518 307.233 737.518C307.233 737.518 262.025 737.024 258.093 736.528C254.163 736.036 191.756 722.671 191.756 722.671L149.987 711.782L120.011 703.864L94.9502 700.895L52.1992 683.077Z" fill="#004A36"/>
<path d="M138.638 723.914L133.596 722.215L126.983 719.985C126.983 719.985 121.018 580.623 154.245 559.42C158.382 556.776 163.117 555.968 168.557 557.484C217.673 571.177 138.638 723.914 138.638 723.914Z" fill="#FFB84D"/>
<path d="M133.596 722.215L126.983 719.985C126.983 719.985 121.018 580.623 154.245 559.419C140.619 581.139 134.419 634.035 132.438 660.339C130.054 692.067 132.663 698.968 132.746 699.169C132.984 698.204 153.65 613.236 158.743 611.221C162.999 609.538 141.131 693.658 133.596 722.215Z" fill="#FF962E"/>
<path d="M124.847 728.327L118.25 728.513L109.596 728.76C109.596 728.76 43.5322 568.923 73.2582 529.918C76.9606 525.059 82.1337 522.079 89.1167 521.504C152.16 516.327 124.847 728.327 124.847 728.327Z" fill="#FF962E"/>
<path d="M118.25 728.513L109.596 728.76C109.596 728.76 43.5322 568.923 73.2582 529.918C66.5921 561.094 81.8043 625.402 90.655 656.907C101.335 694.906 107.302 701.827 107.483 702.027C107.352 700.797 95.3928 592.889 100.472 588.349C104.719 584.558 114.918 691.994 118.25 728.513Z" fill="#DB7B1D"/>
<path d="M124.235 731.445L119.636 734.133L113.604 737.658C113.604 737.658 5.80379 650.085 11.9569 610.954C12.7213 606.082 15.2466 601.968 19.9707 598.856C62.6266 570.774 124.235 731.445 124.235 731.445Z" fill="#FFB84D"/>
<path d="M119.636 734.133L113.604 737.658C113.604 737.658 5.80379 650.085 11.9569 610.954C19.1395 635.611 54.4643 675.247 72.7578 694.123C94.83 716.891 101.696 719.48 101.9 719.549C101.338 718.732 51.6704 646.965 53.5333 641.784C55.0914 637.455 103.333 709.567 119.636 734.133Z" fill="#FF962E"/>
<path d="M601.686 898.423L-107.617 903.926L-132.25 741.194C-132.25 741.194 -104.725 722.527 -53.189 707.081C-33.379 701.144 -10.0388 695.689 16.6562 691.94C95.4296 680.904 203.327 684.814 335.219 735.61C527.179 809.526 601.686 898.423 601.686 898.423Z" fill="#739072"/>
<path d="M410.332 876.221C410.332 876.221 94.2592 887.578 27.7868 885.054C-38.6867 882.526 -59.9976 845.891 -61.26 840.837C-62.2503 836.895 -55.5718 748.127 -53.1924 707.081C-33.3824 701.144 -10.0422 695.689 16.6528 691.94C9.43086 707.966 4.94282 732.712 26.5408 757.476C62.9158 799.165 229.729 749.898 321.286 786.519C412.84 823.156 410.332 876.221 410.332 876.221Z" fill="#4F6F52"/>
<path d="M348.762 518.61C348.921 518.861 349.065 519.093 349.223 519.346L348.993 519.291C348.904 519.058 348.834 518.842 348.762 518.61Z" fill="#0297D9"/>
<path d="M1236.23 100.961C1235.01 93.4988 1228.58 87.803 1220.83 87.803C1219.68 87.803 1218.56 87.9317 1217.48 88.1698C1213.92 81.898 1207.23 77.6679 1199.54 77.6679C1189.27 77.6679 1180.75 85.2335 1179.17 95.1369C1173.08 95.7209 1168.32 100.881 1168.32 107.162C1168.32 113.837 1173.7 119.246 1180.32 119.246C1183.48 119.246 1232.28 119.246 1234.51 119.246C1239.56 119.246 1243.67 115.117 1243.67 110.022C1243.67 105.521 1240.47 101.776 1236.23 100.961Z" fill="white"/>
<path d="M882.09 86.92C880.581 77.6538 872.596 70.5822 862.969 70.5822C861.54 70.5822 860.148 70.7432 858.806 71.0376C854.396 63.2517 846.08 57.9998 836.54 57.9998C823.78 57.9998 813.202 67.3932 811.241 79.686C803.685 80.4132 797.777 86.8203 797.777 94.6191C797.777 102.905 804.447 109.623 812.673 109.623C816.593 109.623 877.189 109.623 879.948 109.623C886.228 109.623 891.321 104.495 891.321 98.1686C891.321 92.5805 887.348 87.9305 882.09 86.92Z" fill="white"/>
<path d="M349.652 377.137C347.796 363.315 337.98 352.768 326.146 352.768C324.388 352.768 322.677 353.008 321.027 353.447C315.605 341.833 305.382 334 293.654 334C277.967 334 264.962 348.011 262.552 366.347C253.263 367.431 246 376.988 246 388.62C246 400.98 254.2 411 264.312 411C269.132 411 343.627 411 347.019 411C354.739 411 361 403.351 361 393.915C361 385.58 356.116 378.644 349.652 377.137Z" fill="white"/>
<path d="M207.48 101.409C205.79 91.0249 196.842 83.1005 186.052 83.1005C184.452 83.1005 182.893 83.2791 181.389 83.6106C176.445 74.885 167.128 68.9992 156.437 68.9992C142.139 68.9992 130.286 79.5254 128.088 93.3032C119.622 94.1174 113 101.295 113 110.035C113 119.322 120.475 126.848 129.693 126.848C134.085 126.848 201.988 126.848 205.081 126.848C212.118 126.848 217.824 121.102 217.824 114.013C217.824 107.75 213.37 102.539 207.48 101.409Z" fill="white"/>
<path d="M1201.83 454.539C1201.83 500.493 1189.9 543.63 1169 580.999C1134.6 642.472 1075.91 688.318 1006.05 705.308C986.689 710.039 966.476 712.531 945.673 712.531C933.004 712.531 920.529 711.6 908.358 709.806C860.01 702.708 816.039 681.991 780.414 651.648C746.571 622.849 720.251 585.354 704.824 542.61C694.929 515.117 689.52 485.474 689.52 454.539C689.52 363.081 736.783 282.737 808.033 236.927C847.786 211.352 895.01 196.548 945.673 196.548C957.079 196.548 968.308 197.301 979.322 198.77C1097.05 214.309 1189.6 310.389 1200.7 430.273C1201.45 438.266 1201.83 446.348 1201.83 454.539Z" fill="#80C3E0"/>
<path d="M1201.82 454.539C1201.82 500.493 1189.9 543.63 1168.99 580.999C1134.6 642.472 1075.91 688.318 1006.05 705.308C986.687 710.039 966.473 712.531 945.67 712.531C933.002 712.531 920.527 711.6 908.355 709.807C860.007 702.708 816.037 681.991 780.412 651.648C746.567 622.849 720.249 585.354 704.822 542.61C704.732 542.376 704.662 542.161 704.59 541.929C717.741 563.166 734.128 582.165 753.025 598.241C786.106 626.432 826.964 645.681 871.876 652.276C883.194 653.943 894.778 654.804 906.54 654.804C925.866 654.804 944.658 652.492 962.63 648.101C1027.54 632.311 1082.05 589.728 1114.01 532.61C1133.44 497.894 1144.51 457.819 1144.51 415.129C1144.51 407.529 1144.17 400.018 1143.48 392.582C1136.41 316.27 1093.81 250.333 1032.49 211.764C1124.01 244.938 1191.34 329.137 1200.7 430.273C1201.45 438.266 1201.82 446.348 1201.82 454.539Z" fill="#0297D9"/>
<path d="M1169 580.999C1134.6 642.473 1075.91 688.318 1006.05 705.309C1002.33 701.509 999.911 696.545 1000.25 691.312C1000.55 686.886 1002.72 682.529 1001.8 678.192C1001.05 674.733 998.417 671.921 997.687 668.46C995.747 659.303 1007.44 652.062 1007.08 642.706C1006.96 639.552 1005.46 636.72 1003.91 633.869C1002.28 630.896 1000.61 627.902 1000.43 624.569C1000.25 620.824 1002.01 617.309 1003.33 613.815C1006.53 605.356 1007.33 596 1005.62 587.112C1004.82 582.988 1002.19 578.042 998.059 578.671C993.701 579.297 989.269 585.749 986.547 582.272C987.669 575.714 979.553 571.59 972.954 571.16C966.367 570.731 958.557 571.142 954.552 565.855C952.737 563.435 952.116 560.192 949.943 558.077C946.158 554.375 940.735 556.098 935.22 557.82C930.054 559.432 924.806 561.046 920.743 558.203C918.002 556.285 916.793 552.826 914.532 550.353C908.767 544.081 898.322 546.05 891.044 550.443C883.784 554.851 877.396 561.266 869.105 563.114C852.27 566.877 837.499 550.478 820.381 548.327C811.004 547.144 801.716 550.333 792.409 552.055C769.187 556.373 745.36 551.5 722.245 546.642C716.567 545.44 710.784 544.187 705.054 542.665L704.824 542.61C704.734 542.377 704.664 542.161 704.592 541.929C694.841 514.634 689.52 485.222 689.52 454.54C689.52 363.081 736.783 282.737 808.033 236.927C816.36 243.611 821.789 253.989 820.257 264.726C818.105 279.547 806.111 296.124 815.86 307.451C819.402 311.556 825.045 313.384 828.46 317.614C831.058 320.822 832.037 324.996 832.962 329.03C835.382 339.693 837.803 350.877 835.044 361.469C832.358 371.757 824.883 381.918 828.353 391.974C835.524 412.709 875.599 401.401 882.591 422.191C884.637 428.231 882.696 434.934 883.997 441.187C889.013 465.473 932.506 461.188 939.926 484.847C941.74 490.652 940.797 496.908 939.818 502.913C937.596 516.766 935.351 530.637 933.11 544.491C941.49 540.639 954.053 538.256 957.632 546.803C958.627 549.188 958.52 551.894 959.357 554.332C961.832 561.625 971.066 563.669 978.737 563.686C990.768 563.733 1002.9 561.749 1014.98 559.765C1035.38 556.415 1055.61 553.065 1074.9 559.493C1080.5 561.376 1085.86 564.045 1091.45 565.981C1093.05 566.537 1094.67 567.02 1096.32 567.413C1104.06 569.276 1112.04 568.92 1120.04 568.565C1125.28 568.332 1130.53 568.1 1135.74 568.491C1147.71 569.405 1159.28 573.921 1169 580.999Z" fill="#00946C"/>
<path d="M1200.7 430.273C1193.48 429.969 1186.29 428.804 1179.33 426.761C1172.03 424.645 1164.69 421.564 1157.14 422.423C1152.87 422.927 1148.51 424.645 1144.27 425.649C1140.16 426.653 1136.18 426.975 1132.57 424.914C1124.22 420.146 1122.46 404.608 1112.92 405.612C1106.48 406.294 1104.13 414.557 1104.25 421.079C1104.38 427.602 1104.9 435.327 1099.79 439.324C1097.24 441.314 1093.86 441.815 1091 443.303C1078.52 449.773 1081.19 470.633 1069.61 478.609C1062.05 483.808 1051.17 480.886 1044.55 474.524C1037.95 468.143 1034.57 459.165 1031.4 450.526C1030.46 447.927 1029.5 445.221 1029.77 442.46C1030.09 439.108 1032.19 436.206 1034.46 433.75C1041.67 426.027 1051.58 420.954 1061.99 419.393C1068.04 418.481 1074.38 418.697 1080.04 416.33C1085.7 413.982 1090.53 407.817 1088.7 401.939C1085.39 403.102 1081.71 403.192 1078.35 402.171C1074.98 396.114 1081.99 389.411 1088.51 387.152C1095.02 384.895 1103.08 383.065 1105.34 376.505C1106.98 371.74 1105.7 364.623 1110.48 363.191C1112.21 362.671 1114.13 363.279 1115.87 362.797C1120.7 361.452 1119.61 353.835 1115.91 350.448C1112.21 347.078 1106.91 345.125 1104.81 340.554C1103.38 337.455 1103.79 333.835 1102.92 330.536C1100.75 322.345 1091.25 318.35 1082.83 318.385C1074.43 318.403 1066.21 321.217 1057.79 321.288C1049.39 321.36 1039.86 317.507 1037.54 309.352C1036.47 305.622 1036.92 301.143 1034.2 298.401C1031.95 296.162 1028.47 295.999 1025.32 295.981C1012.92 295.893 1000.53 295.803 988.127 295.713C979.533 295.66 969.212 294.565 965.367 286.823C958.553 273.077 980.441 256.355 972.343 243.307C970.92 240.995 968.694 239.293 967.183 237.036C962.644 230.262 965.635 221.102 969.3 213.826C971.934 208.556 975.279 203.197 979.318 198.77C997.718 201.208 1015.51 205.599 1032.49 211.765C1033.91 212.284 1035.34 212.823 1036.76 213.361C1037.99 213.826 1039.22 214.31 1040.43 214.793L1040.73 214.918C1040.89 214.973 1041.03 215.028 1041.17 215.099C1042.29 215.546 1043.4 215.993 1044.5 216.477C1044.89 216.64 1045.28 216.801 1045.66 216.962L1045.92 217.087C1046.92 217.499 1047.92 217.93 1048.9 218.378C1049.89 218.807 1050.89 219.274 1051.87 219.723C1052.74 220.117 1053.59 220.511 1054.45 220.923L1054.84 221.102L1055.21 221.282C1056 221.658 1056.78 222.017 1057.56 222.411C1058.91 223.074 1060.27 223.755 1061.6 224.436C1062.65 224.973 1063.68 225.51 1064.72 226.067C1065.68 226.569 1066.64 227.069 1067.58 227.608C1068.56 228.127 1069.52 228.666 1070.48 229.203C1071.5 229.758 1072.49 230.333 1073.49 230.925C1074.09 231.282 1074.72 231.641 1075.34 231.999C1075.94 232.357 1076.55 232.735 1077.17 233.11C1078.49 233.898 1079.79 234.704 1081.09 235.53C1082.21 236.21 1083.33 236.928 1084.43 237.662C1085.91 238.612 1087.38 239.597 1088.84 240.585C1089.61 241.103 1090.37 241.623 1091.12 242.16C1092.23 242.913 1093.31 243.684 1094.4 244.474C1095.43 245.208 1096.46 245.959 1097.49 246.731C1097.99 247.106 1098.49 247.465 1098.97 247.842C1099.84 248.488 1100.71 249.151 1101.57 249.832C1102.46 250.513 1103.33 251.193 1104.2 251.893C1105.3 252.772 1106.41 253.65 1107.49 254.545C1108.6 255.441 1109.68 256.339 1110.75 257.251C1112.03 258.345 1113.29 259.438 1114.54 260.55C1115.63 261.5 1116.71 262.485 1117.78 263.47C1118.85 264.438 1119.91 265.443 1120.96 266.427C1121.8 267.216 1122.64 268.006 1123.45 268.812C1124.93 270.245 1126.39 271.697 1127.83 273.167C1128.08 273.418 1128.33 273.668 1128.58 273.936C1130.04 275.425 1131.46 276.929 1132.87 278.435C1133.79 279.439 1134.74 280.461 1135.64 281.483C1135.79 281.644 1135.93 281.806 1136.09 281.965L1136.3 282.2C1136.89 282.863 1137.46 283.507 1138.03 284.189C1138.76 284.995 1139.47 285.82 1140.16 286.644C1140.46 286.979 1140.74 287.314 1141.03 287.666C1141.9 288.718 1142.78 289.769 1143.65 290.82C1143.9 291.125 1144.15 291.429 1144.38 291.735C1145.34 292.899 1146.27 294.083 1147.19 295.265C1148.19 296.538 1149.17 297.809 1150.13 299.101C1150.43 299.513 1150.75 299.923 1151.05 300.355C1151.36 300.766 1151.68 301.18 1151.96 301.592C1152.66 302.524 1153.33 303.455 1153.99 304.387C1154.88 305.622 1155.75 306.879 1156.61 308.133C1156.73 308.311 1156.87 308.509 1157 308.689C1157.67 309.674 1158.33 310.678 1158.99 311.682C1159.12 311.878 1159.24 312.057 1159.36 312.256C1160.02 313.222 1160.65 314.192 1161.25 315.177C1161.8 316.002 1162.34 316.844 1162.85 317.687C1163.08 318.062 1163.32 318.438 1163.55 318.815C1164.19 319.854 1164.83 320.893 1165.45 321.951C1166.21 323.223 1166.94 324.496 1167.67 325.769C1168.15 326.575 1168.62 327.4 1169.06 328.222C1169.19 328.42 1169.29 328.617 1169.4 328.832C1170.02 329.944 1170.63 331.056 1171.23 332.184C1171.77 333.152 1172.28 334.119 1172.78 335.107C1173.07 335.661 1173.37 336.235 1173.64 336.792C1174.19 337.849 1174.72 338.924 1175.24 339.999C1175.79 341.091 1176.32 342.203 1176.84 343.315C1177.3 344.245 1177.75 345.196 1178.17 346.147C1178.74 347.384 1179.31 348.637 1179.86 349.893C1180.22 350.679 1180.57 351.505 1180.91 352.293L1180.95 352.383C1181.27 353.119 1181.59 353.852 1181.89 354.605C1182.3 355.572 1182.69 356.541 1183.08 357.527C1183.28 357.976 1183.46 358.423 1183.62 358.888C1183.97 359.714 1184.29 360.555 1184.62 361.398C1185.13 362.724 1185.63 364.05 1186.11 365.376L1186.27 365.825L1186.38 366.111C1186.84 367.349 1187.27 368.602 1187.69 369.857L1187.8 370.163C1187.91 370.449 1188.01 370.735 1188.1 371.022C1188.67 372.689 1189.22 374.356 1189.74 376.04C1190.22 377.546 1190.7 379.07 1191.14 380.592L1191.22 380.861C1191.36 381.328 1191.5 381.812 1191.63 382.296C1191.93 383.281 1192.21 384.266 1192.48 385.254C1192.71 386.113 1192.94 386.974 1193.17 387.833C1193.48 388.999 1193.78 390.163 1194.08 391.347C1194.13 391.562 1194.19 391.775 1194.24 391.992C1194.67 393.73 1195.08 395.467 1195.47 397.224C1195.88 399.017 1196.27 400.827 1196.63 402.637C1196.96 404.286 1197.28 405.953 1197.59 407.62L1197.62 407.817C1197.68 408.068 1197.73 408.319 1197.76 408.589C1198.07 410.236 1198.35 411.903 1198.6 413.569C1198.87 415.2 1199.12 416.832 1199.33 418.481C1199.38 418.875 1199.44 419.269 1199.49 419.664C1199.72 421.33 1199.94 422.997 1200.11 424.664C1200.33 426.528 1200.52 428.391 1200.7 430.273Z" fill="#00946C"/>
<path d="M908.353 709.811C860.006 702.711 816.035 681.994 780.41 651.652C786.265 647.906 792.599 644.896 799.202 642.727C804.362 641.024 810.268 639.895 815.073 642.476C821.73 646.025 824.897 655.882 832.424 656.17C838.119 656.385 843.671 650.542 848.796 653.032C856.02 656.545 850.895 670.632 858.137 674.091C860.95 675.418 864.579 674.377 867.107 676.17C869.1 677.55 869.775 680.255 871.642 681.796C875.114 684.63 880.184 682.121 884.651 681.941C893.495 681.6 899.529 690.525 903.745 698.358C905.703 701.996 907.714 705.779 908.353 709.811Z" fill="#007556"/>
<path d="M1135.74 568.491C1147.71 569.405 1159.28 573.921 1168.99 580.999C1134.6 642.473 1075.91 688.318 1006.05 705.309C1002.33 701.509 999.911 696.545 1000.25 691.31C1000.55 686.886 1002.72 682.529 1001.8 678.192C1001.05 674.733 998.416 671.921 997.686 668.46C995.747 659.303 1007.44 652.062 1007.08 642.706C1006.96 639.552 1005.46 636.72 1003.91 633.869C1038.17 618.404 1068.1 594.997 1091.45 565.981C1093.05 566.537 1094.67 567.02 1096.32 567.414C1109.13 570.497 1122.59 567.503 1135.74 568.491Z" fill="#007556"/>
<path d="M1200.7 430.273C1193.47 429.969 1186.29 428.804 1179.33 426.761C1172.03 424.645 1164.69 421.564 1157.14 422.423C1152.87 422.927 1148.51 424.645 1144.27 425.649C1144.43 422.154 1144.51 418.66 1144.51 415.13C1144.51 407.53 1144.17 400.019 1143.47 392.583C1136.41 316.271 1093.81 250.334 1032.49 211.765C1033.91 212.284 1035.34 212.823 1036.76 213.361C1037.99 213.826 1039.22 214.31 1040.43 214.793L1040.73 214.918C1040.89 214.973 1041.03 215.028 1041.17 215.099C1042.29 215.546 1043.4 215.993 1044.5 216.478C1044.89 216.64 1045.28 216.801 1045.66 216.962L1045.92 217.087C1046.92 217.499 1047.92 217.93 1048.9 218.378C1049.89 218.807 1050.89 219.274 1051.87 219.723C1052.74 220.117 1053.59 220.511 1054.45 220.923L1054.84 221.102L1055.21 221.282C1056 221.659 1056.78 222.017 1057.56 222.412C1058.91 223.074 1060.27 223.755 1061.6 224.436C1062.65 224.973 1063.68 225.51 1064.72 226.067C1065.68 226.569 1066.64 227.07 1067.58 227.609C1068.56 228.127 1069.52 228.666 1070.48 229.203C1071.5 229.758 1072.49 230.333 1073.49 230.925C1074.09 231.282 1074.72 231.641 1075.34 232C1075.94 232.357 1076.55 232.735 1077.17 233.11C1078.49 233.898 1079.79 234.704 1081.09 235.53C1082.21 236.21 1083.33 236.928 1084.43 237.662C1085.91 238.613 1087.38 239.597 1088.84 240.585C1089.61 241.103 1090.37 241.623 1091.12 242.16C1092.23 242.913 1093.31 243.684 1094.4 244.474C1095.43 245.208 1096.46 245.959 1097.49 246.732C1097.99 247.106 1098.49 247.465 1098.97 247.842C1099.84 248.489 1100.71 249.151 1101.57 249.832C1102.46 250.513 1103.33 251.193 1104.2 251.893C1105.3 252.772 1106.41 253.65 1107.49 254.545C1108.6 255.441 1109.68 256.339 1110.75 257.251C1112.03 258.345 1113.29 259.438 1114.54 260.55C1115.63 261.501 1116.71 262.485 1117.78 263.47C1118.85 264.439 1119.91 265.443 1120.96 266.427C1121.8 267.216 1122.64 268.006 1123.45 268.812C1124.93 270.245 1126.39 271.697 1127.83 273.167C1128.08 273.418 1128.33 273.668 1128.58 273.937C1130.02 275.407 1131.46 276.913 1132.87 278.435C1133.79 279.439 1134.74 280.461 1135.64 281.483C1135.79 281.644 1135.93 281.806 1136.09 281.965L1136.3 282.2C1136.89 282.863 1137.46 283.507 1138.03 284.189C1138.76 284.995 1139.47 285.821 1140.16 286.644C1140.45 286.968 1140.71 287.29 1141 287.631C1141.89 288.688 1142.78 289.745 1143.65 290.82C1143.9 291.125 1144.15 291.43 1144.38 291.735C1145.34 292.899 1146.27 294.083 1147.19 295.265C1148.19 296.538 1149.17 297.809 1150.13 299.101C1150.43 299.513 1150.75 299.923 1151.05 300.355C1151.36 300.767 1151.68 301.18 1151.96 301.592C1152.66 302.524 1153.33 303.455 1153.99 304.387C1154.88 305.623 1155.75 306.879 1156.61 308.133C1156.73 308.311 1156.87 308.509 1157 308.689C1157.67 309.674 1158.33 310.678 1158.99 311.682C1159.12 311.878 1159.24 312.057 1159.36 312.256C1160.02 313.222 1160.65 314.192 1161.25 315.177C1161.8 316.002 1162.34 316.844 1162.85 317.687C1163.08 318.062 1163.32 318.438 1163.55 318.815C1164.19 319.854 1164.83 320.894 1165.45 321.951C1166.21 323.223 1166.94 324.496 1167.67 325.769C1168.15 326.575 1168.62 327.4 1169.06 328.223C1169.19 328.42 1169.29 328.617 1169.4 328.832C1170.02 329.944 1170.63 331.056 1171.23 332.184C1171.77 333.153 1172.28 334.12 1172.78 335.108C1173.07 335.661 1173.37 336.235 1173.64 336.792C1174.19 337.849 1174.72 338.924 1175.24 339.999C1175.79 341.091 1176.32 342.203 1176.84 343.315C1177.3 344.245 1177.75 345.196 1178.17 346.147C1178.74 347.384 1179.31 348.638 1179.86 349.893C1180.22 350.679 1180.57 351.505 1180.91 352.293L1180.95 352.383C1181.27 353.119 1181.59 353.852 1181.89 354.605C1182.3 355.572 1182.69 356.541 1183.08 357.527C1183.28 357.976 1183.46 358.424 1183.62 358.889C1183.97 359.714 1184.29 360.555 1184.62 361.399C1185.13 362.724 1185.63 364.05 1186.11 365.376L1186.27 365.825L1186.38 366.111C1186.84 367.349 1187.27 368.602 1187.69 369.857L1187.8 370.163C1187.91 370.449 1188.01 370.736 1188.1 371.022C1188.67 372.689 1189.22 374.356 1189.74 376.041C1190.22 377.547 1190.7 379.07 1191.14 380.592L1191.22 380.861C1191.36 381.328 1191.5 381.812 1191.63 382.296C1191.93 383.281 1192.21 384.266 1192.48 385.254C1192.71 386.113 1192.94 386.974 1193.17 387.833C1193.47 388.999 1193.78 390.163 1194.08 391.347C1194.13 391.563 1194.19 391.775 1194.24 391.992C1194.67 393.73 1195.08 395.468 1195.47 397.225C1195.88 399.017 1196.27 400.827 1196.63 402.637C1196.96 404.287 1197.28 405.953 1197.59 407.62L1197.62 407.817C1197.68 408.068 1197.73 408.319 1197.76 408.589C1198.07 410.237 1198.35 411.904 1198.6 413.569C1198.87 415.2 1199.12 416.832 1199.33 418.481C1199.38 418.875 1199.44 419.269 1199.49 419.664C1199.72 421.331 1199.94 422.998 1200.11 424.664C1200.33 426.528 1200.52 428.391 1200.7 430.273Z" fill="#007556"/>
<path d="M828.47 379.725C830.143 373.681 833.443 367.598 835.042 361.469C837.801 350.877 835.381 339.693 832.961 329.03C832.036 324.996 831.056 320.822 828.459 317.614C825.043 313.384 819.401 311.556 815.859 307.452C807.247 297.447 815.6 283.344 819.15 269.975C820.104 269.238 821.073 268.507 822.05 267.785C846.399 249.804 872.838 240.379 894.071 240.379C909.209 240.379 921.701 245.169 928.902 255.064C946.208 278.837 926.428 323.077 884.721 353.876C866.105 367.623 846.27 376.368 828.47 379.725Z" fill="#A5D4E9"/>
<path d="M812.699 381.279C797.561 381.279 785.07 376.489 777.867 366.596C760.966 343.379 779.431 300.647 819.148 269.974C815.599 283.343 807.245 297.446 815.858 307.45C819.399 311.555 825.042 313.383 828.457 317.613C831.055 320.821 832.034 324.995 832.959 329.029C835.379 339.691 837.8 350.876 835.041 361.468C833.442 367.596 830.141 373.68 828.469 379.723C822.987 380.756 817.698 381.279 812.699 381.279Z" fill="#4AB397"/>
<path d="M768.58 474.148C754.223 474.148 742.582 462.425 742.582 447.964C742.582 433.502 754.223 421.78 768.58 421.78C782.937 421.78 794.577 433.502 794.577 447.964C794.577 462.425 782.937 474.148 768.58 474.148Z" fill="#4AB397"/>
<path d="M1077.57 636H826.059L844.833 660.262L826.059 682.383H1077.57L1058.8 660.262L1077.57 636Z" fill="#1D2538"/>
<path d="M739.979 716.615H758.833V723.664H739.979V716.615ZM740.651 732.727H761.966V740H731.643V700.839H761.238V708.111H740.651V732.727ZM769.177 740V700.839H776.673L799.779 729.035H796.142V700.839H805.093V740H797.653L774.492 711.804H778.128V740H769.177ZM825.943 740L809.048 700.839H818.838L833.608 735.524H827.846L842.839 700.839H851.846L834.895 740H825.943ZM855.116 740V700.839H864.179V740H855.116ZM873.473 740V700.839H890.424C893.93 700.839 896.951 701.417 899.487 702.573C902.023 703.692 903.981 705.314 905.361 707.44C906.741 709.566 907.431 712.102 907.431 715.049C907.431 717.958 906.741 720.475 905.361 722.601C903.981 724.69 902.023 726.293 899.487 727.412C896.951 728.531 893.93 729.091 890.424 729.091H878.508L882.536 725.119V740H873.473ZM898.368 740L888.578 725.79H898.256L908.158 740H898.368ZM882.536 726.126L878.508 721.874H889.92C892.718 721.874 894.806 721.277 896.186 720.084C897.566 718.853 898.256 717.174 898.256 715.049C898.256 712.885 897.566 711.207 896.186 710.014C894.806 708.82 892.718 708.223 889.92 708.223H878.508L882.536 703.916V726.126ZM933.633 740.671C930.537 740.671 927.666 740.168 925.018 739.161C922.407 738.154 920.132 736.737 918.192 734.909C916.29 733.081 914.798 730.937 913.717 728.475C912.672 726.014 912.15 723.328 912.15 720.419C912.15 717.51 912.672 714.825 913.717 712.363C914.798 709.902 916.309 707.757 918.248 705.93C920.188 704.102 922.463 702.685 925.073 701.678C927.684 700.671 930.519 700.167 933.577 700.167C936.673 700.167 939.507 700.671 942.081 701.678C944.691 702.685 946.948 704.102 948.85 705.93C950.789 707.757 952.3 709.902 953.382 712.363C954.463 714.787 955.004 717.473 955.004 720.419C955.004 723.328 954.463 726.032 953.382 728.531C952.3 730.993 950.789 733.137 948.85 734.965C946.948 736.755 944.691 738.154 942.081 739.161C939.507 740.168 936.691 740.671 933.633 740.671ZM933.577 732.951C935.33 732.951 936.934 732.653 938.388 732.056C939.88 731.459 941.186 730.601 942.304 729.482C943.423 728.363 944.281 727.039 944.878 725.51C945.512 723.981 945.829 722.284 945.829 720.419C945.829 718.554 945.512 716.857 944.878 715.328C944.281 713.799 943.423 712.475 942.304 711.356C941.223 710.237 939.936 709.379 938.444 708.783C936.952 708.186 935.33 707.888 933.577 707.888C931.824 707.888 930.202 708.186 928.71 708.783C927.255 709.379 925.969 710.237 924.85 711.356C923.731 712.475 922.854 713.799 922.22 715.328C921.624 716.857 921.325 718.554 921.325 720.419C921.325 722.247 921.624 723.944 922.22 725.51C922.854 727.039 923.712 728.363 924.794 729.482C925.913 730.601 927.218 731.459 928.71 732.056C930.202 732.653 931.824 732.951 933.577 732.951ZM961.815 740V700.839H969.312L992.417 729.035H988.781V700.839H997.732V740H990.291L967.13 711.804H970.766V740H961.815ZM1007 740V700.839H1014.49L1031.17 728.475H1027.19L1043.59 700.839H1051.03L1051.14 740H1042.63L1042.58 713.874H1044.14L1031.05 735.86H1026.97L1013.6 713.874H1015.5V740H1007ZM1068.76 716.615H1087.62V723.664H1068.76V716.615ZM1069.44 732.727H1090.75V740H1060.43V700.839H1090.02V708.111H1069.44V732.727ZM1097.96 740V700.839H1105.46L1128.56 729.035H1124.93V700.839H1133.88V740H1126.44L1103.28 711.804H1106.91V740H1097.96ZM1151.26 740V708.223H1138.72V700.839H1172.85V708.223H1160.32V740H1151.26Z" fill="white"/>
<path d="M896.014 664.717L890.001 646.883H891.937L897.568 663.672H896.6L902.409 646.883H904.141L909.873 663.672H908.956L914.637 646.883H916.446L910.434 664.717H908.447L902.969 648.794H903.479L897.976 664.717H896.014ZM927.55 664.87C926.208 664.87 924.96 664.649 923.805 664.207C922.667 663.749 921.673 663.112 920.824 662.296C919.992 661.464 919.338 660.505 918.862 659.418C918.403 658.314 918.174 657.108 918.174 655.8C918.174 654.492 918.403 653.295 918.862 652.208C919.338 651.104 919.992 650.144 920.824 649.329C921.673 648.496 922.667 647.86 923.805 647.418C924.943 646.959 926.191 646.73 927.55 646.73C928.891 646.73 930.131 646.959 931.269 647.418C932.407 647.86 933.392 648.488 934.225 649.303C935.074 650.119 935.728 651.078 936.186 652.182C936.662 653.286 936.9 654.492 936.9 655.8C936.9 657.108 936.662 658.314 936.186 659.418C935.728 660.522 935.074 661.481 934.225 662.296C933.392 663.112 932.407 663.749 931.269 664.207C930.131 664.649 928.891 664.87 927.55 664.87ZM927.55 663.188C928.62 663.188 929.605 663.01 930.505 662.653C931.422 662.28 932.212 661.761 932.874 661.099C933.554 660.42 934.08 659.638 934.454 658.755C934.828 657.855 935.014 656.87 935.014 655.8C935.014 654.73 934.828 653.753 934.454 652.87C934.08 651.97 933.554 651.189 932.874 650.526C932.212 649.847 931.422 649.329 930.505 648.972C929.605 648.598 928.62 648.412 927.55 648.412C926.48 648.412 925.486 648.598 924.569 648.972C923.652 649.329 922.853 649.847 922.174 650.526C921.512 651.189 920.985 651.97 920.594 652.87C920.221 653.753 920.034 654.73 920.034 655.8C920.034 656.853 920.221 657.83 920.594 658.73C920.985 659.63 921.512 660.42 922.174 661.099C922.853 661.761 923.652 662.28 924.569 662.653C925.486 663.01 926.48 663.188 927.55 663.188ZM941.125 664.717V646.883H947.8C949.312 646.883 950.611 647.129 951.698 647.622C952.785 648.097 953.618 648.794 954.195 649.711C954.79 650.611 955.087 651.707 955.087 652.997C955.087 654.254 954.79 655.341 954.195 656.258C953.618 657.159 952.785 657.855 951.698 658.348C950.611 658.823 949.312 659.061 947.8 659.061H942.17L943.011 658.195V664.717H941.125ZM953.303 664.717L948.718 658.246H950.756L955.367 664.717H953.303ZM943.011 658.348L942.17 657.456H947.749C949.533 657.456 950.883 657.065 951.8 656.284C952.734 655.503 953.202 654.407 953.202 652.997C953.202 651.571 952.734 650.467 951.8 649.685C950.883 648.904 949.533 648.513 947.749 648.513H942.17L943.011 647.622V658.348ZM959.537 664.717V646.883H961.422V663.086H971.409V664.717H959.537ZM974.539 664.717V646.883H981.8C983.702 646.883 985.367 647.265 986.793 648.029C988.237 648.777 989.358 649.821 990.156 651.163C990.955 652.505 991.354 654.05 991.354 655.8C991.354 657.549 990.955 659.095 990.156 660.437C989.358 661.778 988.237 662.832 986.793 663.596C985.367 664.343 983.702 664.717 981.8 664.717H974.539ZM976.424 663.086H981.698C983.278 663.086 984.645 662.781 985.8 662.169C986.972 661.541 987.88 660.683 988.526 659.596C989.171 658.492 989.494 657.227 989.494 655.8C989.494 654.356 989.171 653.091 988.526 652.004C987.88 650.917 986.972 650.068 985.8 649.456C984.645 648.828 983.278 648.513 981.698 648.513H976.424V663.086Z" fill="white"/>
<path d="M785.625 359.759C782.981 343.534 769.003 331.153 752.145 331.153C749.642 331.153 747.206 331.433 744.857 331.951C737.132 318.316 722.572 309.119 705.87 309.119C683.53 309.119 665.008 325.567 661.573 347.093C648.346 348.366 638 359.584 638 373.24C638 387.748 649.676 399.51 664.083 399.51C670.944 399.51 777.043 399.51 781.872 399.51C792.87 399.51 801.785 390.53 801.785 379.454C801.785 369.669 794.828 361.528 785.625 359.759Z" fill="white"/>
<path d="M777.18 196.732L766.273 277.17L767.258 277.305L778.164 196.869" fill="#2E3B59"/>
<path d="M715.969 196.869L726.875 277.305L727.859 277.17L716.953 196.734L715.969 196.869Z" fill="#2E3B59"/>
<path d="M757.084 196.776L753.336 277.211L754.328 277.258L758.076 196.822" fill="#2E3B59"/>
<path d="M736.055 196.822L739.802 277.258L740.795 277.211L737.047 196.776" fill="#2E3B59"/>
<path d="M810.199 173.589C810.199 207.49 792.242 230.853 775.484 245.27H718.66C713.021 240.426 707.254 234.57 702.078 227.635C691.837 213.958 683.93 196.098 683.93 173.589C683.93 138.48 712.206 110.001 747.064 110.001C756.681 110.001 765.803 112.173 773.967 116.051C795.374 126.236 810.199 148.166 810.199 173.589Z" fill="#FFB84D"/>
<path d="M810.191 173.589C810.191 207.49 792.235 230.853 775.477 245.27H718.653C713.013 240.426 707.246 234.57 702.07 227.635C783.88 213.685 781.34 149.711 773.959 116.051C795.366 126.236 810.191 148.166 810.191 173.589Z" fill="#FF962E"/>
<path d="M726.165 173.589C726.165 191.931 727.907 207.184 730.367 219.622C732.492 230.161 735.111 238.657 737.65 245.27H724.568C719.742 240.04 714.807 233.619 710.462 225.962C702.841 212.51 697.074 195.181 697.074 173.589C697.074 138.48 719.456 110.001 747.061 110.001C735.527 110.001 726.165 138.48 726.165 173.589Z" fill="#00946C"/>
<path d="M797.061 173.589C797.061 207.49 782.843 230.853 769.568 245.27H756.468C761.229 232.896 766.293 213.958 767.619 187.426C767.842 183.017 767.97 178.416 767.97 173.589C767.97 139.027 758.896 110.886 747.602 110.017C757.698 110.146 767.091 114.088 774.919 120.781C788.275 132.205 797.061 151.593 797.061 173.589Z" fill="#00946C"/>
<path d="M737.649 245.27H724.567C719.741 240.04 714.806 233.619 710.461 225.962C717.842 224.272 724.455 222.132 730.366 219.622C732.491 230.161 735.111 238.657 737.649 245.27Z" fill="#007556"/>
<path d="M797.066 173.589C797.066 207.49 782.848 230.853 769.572 245.27H756.473C761.233 232.896 766.297 213.958 767.623 187.426C779.701 165.495 778.439 139.558 774.924 120.781C788.28 132.205 797.066 151.593 797.066 173.589Z" fill="#007556"/>
<path d="M724.996 274.051L729.615 314.889H764.516L769.134 274.051H724.996Z" fill="#2E3B59"/>
<mask id="mask0_168_452" style="mask-type:luminance" maskUnits="userSpaceOnUse" x="691" y="160" width="43" height="33">
<path d="M698.565 192.129C694.066 188.248 691.215 182.485 691.215 176.05C691.215 169.81 693.896 164.2 698.163 160.327C697.448 164.605 697.073 169.04 697.073 173.587C697.073 180.16 697.607 186.337 698.565 192.129ZM726.736 191.358C726.369 185.789 726.164 179.87 726.164 173.587C726.164 169.139 726.314 164.802 726.6 160.612C730.687 164.473 733.24 169.962 733.24 176.05C733.24 182.071 730.743 187.505 726.736 191.358Z" fill="white"/>
</mask>
<g mask="url(#mask0_168_452)">
<path d="M691.215 192.129H733.24V160.327H691.215V192.129Z" fill="#FFD08A"/>
</g>
<path d="M712.228 197.213C707.012 197.213 702.241 195.298 698.566 192.128C697.608 186.336 697.074 180.159 697.074 173.586C697.074 169.039 697.45 164.605 698.164 160.327C701.888 156.944 706.819 154.887 712.228 154.887C717.788 154.887 722.842 157.06 726.601 160.611C726.315 164.801 726.165 169.139 726.165 173.586C726.165 179.869 726.37 185.789 726.737 191.358C722.965 194.984 717.855 197.213 712.228 197.213Z" fill="#57B99E"/>
<path d="M734.621 148.99C732.163 148.99 729.902 148.125 728.129 146.68C729.178 139.846 730.618 133.673 732.358 128.426C733.086 128.261 733.843 128.175 734.621 128.175C740.328 128.175 744.956 132.834 744.956 138.582C744.956 144.329 740.328 148.99 734.621 148.99Z" fill="#FFD08A"/>
<path d="M728.127 146.68C725.784 144.771 724.285 141.853 724.285 138.582C724.285 133.616 727.737 129.465 732.356 128.426C730.616 133.673 729.177 139.846 728.127 146.68Z" fill="#57B99E"/>
<path d="M1131.01 220.665L1122.05 286.774L1122.86 286.885L1131.82 220.776" fill="#2E3B59"/>
<path d="M1080.7 220.776L1089.67 286.885L1090.47 286.774L1081.51 220.665L1080.7 220.776Z" fill="#2E3B59"/>
<path d="M1114.49 220.702L1111.41 286.811L1112.23 286.85L1115.31 220.741" fill="#2E3B59"/>
<path d="M1097.21 220.741L1100.29 286.85L1101.1 286.811L1098.02 220.702" fill="#2E3B59"/>
<path d="M1158.15 201.645C1158.15 229.508 1143.39 248.708 1129.62 260.559H1082.91C1078.28 256.576 1073.54 251.764 1069.28 246.065C1060.87 234.823 1054.37 220.144 1054.37 201.645C1054.37 172.789 1077.61 149.383 1106.26 149.383C1114.16 149.383 1121.66 151.167 1128.37 154.355C1145.96 162.727 1158.15 180.751 1158.15 201.645Z" fill="#FFB84D"/>
<path d="M1158.14 201.645C1158.14 229.508 1143.39 248.708 1129.61 260.559H1082.91C1078.28 256.576 1073.54 251.764 1069.28 246.065C1136.52 234.599 1134.43 182.02 1128.37 154.355C1145.96 162.727 1158.14 180.751 1158.14 201.645Z" fill="#FF962E"/>
<path d="M1089.08 201.645C1089.08 216.72 1090.51 229.257 1092.53 239.477C1094.28 248.14 1096.43 255.123 1098.52 260.559H1087.77C1083.8 256.259 1079.74 250.983 1076.18 244.687C1069.91 233.632 1065.17 219.391 1065.17 201.645C1065.17 172.789 1083.57 149.383 1106.25 149.383C1096.77 149.383 1089.08 172.789 1089.08 201.645Z" fill="#00946C"/>
<path d="M1147.35 201.645C1147.35 229.508 1135.67 248.708 1124.76 260.559H1113.99C1117.9 250.388 1122.06 234.824 1123.15 213.017C1123.34 209.394 1123.44 205.611 1123.44 201.645C1123.44 173.238 1115.99 150.11 1106.7 149.396C1115 149.502 1122.72 152.743 1129.15 158.244C1140.13 167.632 1147.35 183.566 1147.35 201.645Z" fill="#00946C"/>
<path d="M1098.52 260.559H1087.77C1083.8 256.259 1079.74 250.982 1076.18 244.687C1082.24 243.3 1087.68 241.54 1092.53 239.477C1094.28 248.14 1096.43 255.123 1098.52 260.559Z" fill="#007556"/>
<path d="M1147.35 201.645C1147.35 229.508 1135.66 248.708 1124.75 260.559H1113.99C1117.9 250.388 1122.06 234.824 1123.15 213.017C1133.08 194.993 1132.04 173.676 1129.15 158.244C1140.13 167.632 1147.35 183.566 1147.35 201.645Z" fill="#007556"/>
<path d="M1088.12 284.217L1091.92 317.779H1120.6L1124.4 284.217H1088.12Z" fill="#2E3B59"/>
<path d="M1066.4 216.885C1062.7 213.696 1060.36 208.957 1060.36 203.668C1060.36 198.541 1062.56 193.931 1066.07 190.748C1065.48 194.264 1065.17 197.908 1065.17 201.646C1065.17 207.046 1065.61 212.124 1066.4 216.885ZM1089.55 216.249C1089.25 211.673 1089.08 206.808 1089.08 201.646C1089.08 197.992 1089.21 194.425 1089.44 190.983C1092.8 194.156 1094.9 198.666 1094.9 203.668C1094.9 208.618 1092.85 213.083 1089.55 216.249Z" fill="#FFD08A"/>
<path d="M1077.63 221.062C1073.34 221.062 1069.42 219.489 1066.4 216.884C1065.61 212.123 1065.17 207.045 1065.17 201.645C1065.17 197.907 1065.48 194.263 1066.07 190.747C1069.13 187.969 1073.18 186.276 1077.63 186.276C1082.2 186.276 1086.35 188.064 1089.44 190.982C1089.21 194.424 1089.08 197.991 1089.08 201.645C1089.08 206.807 1089.25 211.672 1089.55 216.248C1086.45 219.231 1082.25 221.062 1077.63 221.062Z" fill="#57B99E"/>
<path d="M1096.03 181.43C1094.01 181.43 1092.15 180.719 1090.69 179.531C1091.55 173.916 1092.74 168.839 1094.17 164.527C1094.77 164.392 1095.39 164.321 1096.03 164.321C1100.72 164.321 1104.52 168.152 1104.52 172.875C1104.52 177.6 1100.72 181.43 1096.03 181.43Z" fill="#FFD08A"/>
<path d="M1090.69 179.529C1088.77 177.961 1087.54 175.563 1087.54 172.873C1087.54 168.794 1090.37 165.38 1094.17 164.525C1092.74 168.837 1091.56 173.914 1090.69 179.529Z" fill="#57B99E"/>
</svg>
