<svg width="29" height="29" viewBox="0 0 29 29" fill="none" xmlns="http://www.w3.org/2000/svg">
<path d="M16.0692 0.828125V2.75656C17.9766 2.75656 19.7635 3.23867 21.4299 4.20289C23.0161 5.14702 24.281 6.41256 25.2246 7.9995C26.1883 9.66679 26.6702 11.4546 26.6702 13.363H28.5977C28.5977 11.093 28.0254 8.98381 26.881 7.03528C25.7767 5.14702 24.281 3.65047 22.3937 2.54564C20.4461 1.40063 18.338 0.828125 16.0692 0.828125ZM6.10061 3.72078C5.55852 3.72078 5.08669 3.89153 4.68514 4.23302L1.58314 7.39686L1.67349 7.3366C1.17154 7.75845 0.840262 8.28073 0.67964 8.90345C0.539096 9.52618 0.579252 10.1288 0.800106 10.7114C1.36228 12.2782 2.11519 13.8853 3.05885 15.5325C4.38397 17.8024 5.96007 19.8413 7.78714 21.6492C10.7185 24.6021 14.3626 26.9323 18.7194 28.6398H18.7496C19.3318 28.8407 19.9141 28.8809 20.4963 28.7603C21.0986 28.6398 21.6307 28.3787 22.0925 27.9769L25.1343 24.9336C25.5358 24.5318 25.7366 24.0397 25.7366 23.4571C25.7366 22.8545 25.5358 22.3523 25.1343 21.9505L21.189 17.9731C20.7874 17.5714 20.2855 17.3705 19.6832 17.3705C19.0808 17.3705 18.5789 17.5714 18.1773 17.9731L16.28 19.9016C14.7541 19.1784 13.429 18.2845 12.3046 17.2198C11.1803 16.1351 10.2868 14.8193 9.62425 13.2726L11.5517 11.3441C11.9733 10.9022 12.1842 10.3799 12.1842 9.77728C12.1842 9.15455 11.9432 8.65236 11.4614 8.27069L11.5517 8.36108L7.51609 4.23302C7.11454 3.89153 6.64271 3.72078 6.10061 3.72078ZM16.0692 4.685V6.61344C17.2939 6.61344 18.4183 6.91475 19.4422 7.51739C20.4863 8.12003 21.3095 8.94363 21.9118 9.9882C22.5141 11.0127 22.8153 12.1376 22.8153 13.363H24.7427C24.7427 11.7961 24.3512 10.3397 23.5682 8.99385C22.7852 7.68814 21.7411 6.64357 20.4361 5.86014C19.0909 5.07671 17.6352 4.685 16.0692 4.685ZM6.10061 5.64922C6.16085 5.64922 6.23112 5.67935 6.31143 5.73961L10.2567 9.77728C10.2768 9.85763 10.2567 9.92794 10.1965 9.9882L7.33539 12.8206L7.54621 13.4232L7.93772 14.2669C8.25896 14.9499 8.6304 15.6128 9.05203 16.2556C9.63429 17.1596 10.2768 17.933 10.9795 18.5758C11.9231 19.4998 13.0575 20.3435 14.3827 21.1068C15.0452 21.4885 15.6074 21.7697 16.0692 21.9505L16.6715 22.2217L19.5928 19.2989C19.633 19.2588 19.6631 19.2387 19.6832 19.2387C19.7032 19.2387 19.7334 19.2588 19.7735 19.2989L23.8392 23.3667C23.8794 23.4069 23.8995 23.437 23.8995 23.4571C23.8995 23.4571 23.8794 23.4772 23.8392 23.5174L20.8276 26.5004C20.3859 26.8821 19.904 26.9826 19.382 26.8018C15.2862 25.2148 11.8729 23.0453 9.14238 20.2933C7.45586 18.6059 5.98015 16.6875 4.71525 14.5381C3.81176 12.9913 3.10904 11.4948 2.6071 10.0485V10.0183C2.52679 9.83754 2.51675 9.62662 2.57698 9.38556C2.63721 9.12442 2.74764 8.92354 2.90826 8.78293L5.8898 5.73961C5.95003 5.67935 6.0203 5.64922 6.10061 5.64922ZM16.0692 8.54187V10.4703C16.8723 10.4703 17.5549 10.7515 18.1171 11.314C18.6793 11.8765 18.9604 12.5595 18.9604 13.363H20.8878C20.8878 12.4992 20.667 11.6957 20.2253 10.9524C19.8036 10.2092 19.2214 9.62662 18.4785 9.20477C17.7356 8.76284 16.9325 8.54187 16.0692 8.54187Z" fill="black"/>
</svg>
