<svg width="142" height="140" viewBox="0 0 142 140" fill="none" xmlns="http://www.w3.org/2000/svg">
<path fill-rule="evenodd" clip-rule="evenodd" d="M87.8361 37.1991C88.1011 37.2961 88.3832 37.34 88.6657 37.328C88.9482 37.3161 89.2254 37.2487 89.481 37.1297C89.3136 37.5021 89.0153 37.8028 88.6409 37.9766C88.6325 37.9789 88.6247 37.9828 88.6179 37.988C88.6111 37.9933 88.6054 37.9998 88.6011 38.0072C88.5969 38.0146 88.5941 38.0228 88.5931 38.0312C88.592 38.0397 88.5927 38.0482 88.595 38.0564C88.5973 38.0647 88.6013 38.0723 88.6066 38.079C88.6119 38.0857 88.6186 38.0914 88.6261 38.0955C88.6336 38.0997 88.6419 38.1024 88.6505 38.1035C88.6591 38.1045 88.6678 38.1039 88.6762 38.1016C89.6927 37.9003 89.9469 36.8104 90.0033 36.7132C90.0121 36.6781 90.0084 36.6412 89.993 36.6084C89.9777 36.5756 89.9514 36.549 89.9186 36.5327C89.5868 36.3453 89.9186 37.0395 87.8785 37.0603C87.8692 37.0576 87.8595 37.0566 87.8498 37.0576C87.8402 37.0586 87.8309 37.0614 87.8224 37.0659C87.8138 37.0704 87.8063 37.0765 87.8002 37.0839C87.7941 37.0913 87.7895 37.0998 87.7867 37.1089C87.7839 37.118 87.783 37.1276 87.784 37.137C87.785 37.1465 87.7878 37.1557 87.7924 37.1641C87.797 37.1725 87.8032 37.1799 87.8107 37.1859C87.8182 37.1919 87.8268 37.1964 87.8361 37.1991ZM45.0844 39.6496C45.0976 39.6623 45.1153 39.6694 45.1338 39.6694C45.1523 39.6694 45.17 39.6623 45.1832 39.6496C45.275 39.4969 44.8938 39.726 44.9291 38.3931C45.2092 38.6028 45.5452 38.7282 45.8962 38.7541C45.906 38.7572 45.9163 38.7583 45.9265 38.7571C45.9367 38.7559 45.9465 38.7525 45.9552 38.7473C45.9639 38.742 45.9714 38.7349 45.9771 38.7265C45.9827 38.7181 45.9865 38.7085 45.988 38.6986C45.9901 38.6794 45.9847 38.6601 45.9729 38.6446C45.9611 38.6292 45.9438 38.6187 45.9245 38.6153C45.7987 38.5646 45.6762 38.5066 45.5574 38.4417C45.2932 38.3113 45.0798 38.0991 44.9503 37.8378C44.9365 37.8019 44.911 37.7716 44.8777 37.7515C44.8445 37.7314 44.8055 37.7227 44.7667 37.7267C44.442 37.7267 44.4349 39.3719 45.0844 39.6496ZM45.7198 34.2211C46.0204 34.1361 46.2868 33.9615 46.4822 33.7213C46.5006 33.7136 46.5153 33.6992 46.5232 33.6811C46.5311 33.6629 46.5316 33.6425 46.5245 33.6241C46.5117 33.6133 46.4955 33.6074 46.4786 33.6074C46.4618 33.6074 46.4455 33.6133 46.4327 33.6241C46.2791 33.6135 46.1257 33.6464 45.9905 33.719C45.8554 33.7916 45.7443 33.9008 45.6703 34.0337C45.6494 34.071 45.6328 34.1106 45.6209 34.1517C45.5503 34.1933 45.6562 34.2905 45.7198 34.2211Z" fill="black"/>
<path fill-rule="evenodd" clip-rule="evenodd" d="M125.469 68.3883C125.321 59.8151 124.34 5.70346 124.34 5.70346C124.339 5.67826 124.334 5.6534 124.323 5.63063C124.312 5.60785 124.296 5.5877 124.276 5.57157C124.258 5.55416 124.235 5.54132 124.211 5.53408C124.186 5.52684 124.16 5.52541 124.135 5.52992L66.4314 13.0271C66.3608 13.0271 66.3961 13.0896 66.3961 13.159V50.7838C65.316 50.7838 47.2792 51.4016 47.2792 51.4016C47.2605 51.4016 47.2425 51.4089 47.2293 51.4219C47.2161 51.4349 47.2086 51.4526 47.2086 51.471C47.2086 51.4807 47.2106 51.4904 47.2146 51.4993C47.2186 51.5082 47.2244 51.5162 47.2317 51.5227C47.2391 51.5293 47.2477 51.5342 47.2571 51.5373C47.2665 51.5403 47.2764 51.5414 47.2863 51.5404L57.1694 51.3391C57.1694 51.6168 57.6565 62.6474 57.6918 63.1402C57.7483 64.0566 57.9742 66.9721 57.9883 67.0971C57.8944 67.0655 57.8025 67.0284 57.713 66.986C55.455 66.0363 53.1313 65.2453 50.7595 64.6188C50.0536 64.4453 49.4112 64.2995 48.7829 64.1815C48.7005 60.448 48.268 56.7299 47.491 53.0746C46.8839 50.4089 45.9803 47.8404 44.6673 46.1327C43.9363 45.1651 43.1008 44.2783 42.1753 43.4879L42.2247 41.6552C42.7012 41.7867 43.1915 41.8636 43.686 41.8843C44.538 41.9539 45.3895 41.744 46.1074 41.2873C46.9263 40.7181 47.5192 39.6491 47.4769 37.7262C47.8863 37.7262 48.324 37.8372 48.324 37.5596C48.324 37.0806 46.8486 34.1581 46.8133 32.8461C46.9125 32.8184 47.0142 32.7998 47.1169 32.7905C47.724 32.7905 51.176 32.0061 51.3949 31.6868C51.52 31.5283 51.5849 31.3319 51.5784 31.1314L46.7427 31.8256C45.3308 28.1742 44.6884 27.4245 43.213 27.1468C40.9328 26.7233 36.8596 27.4036 35.61 29.2918C34.9041 30.2984 34.9041 32.3115 34.9041 33.6305C34.8887 34.0185 34.9147 34.4071 34.9818 34.7898V34.9425C35.0315 35.1803 35.1048 35.4129 35.2006 35.6367C35.3226 35.9333 35.4789 36.2152 35.6665 36.4766C35.9196 36.8312 36.2296 37.143 36.5842 37.3999C36.5066 37.5804 35.9771 38.7883 35.8783 38.9965C35.7795 39.2048 35.2783 40.4543 35.2147 40.614C32.5463 40.7112 29.8002 42.2037 27.6047 46.2646C26.0096 49.3773 24.9754 52.7383 24.548 56.1984C24.1838 58.7723 23.9975 61.3676 23.9903 63.9663C23.9209 66.5875 24.0578 69.2101 24.3997 71.8106C24.3997 71.8106 24.4986 75.3579 24.6609 77.7736C24.3644 77.7736 24.1173 78.2318 24.0326 78.5858C23.9522 78.9128 23.9189 79.2493 23.9338 79.5854C23.7125 79.2328 23.4388 78.9146 23.122 78.6414C22.6419 78.2526 21.9078 77.9055 21.3642 78.4123C20.6582 79.1065 20.1923 80.9669 19.9947 81.9249C19.1969 80.2519 17.7568 79.9256 16.8462 82.4177C15.5967 79.9048 14.3966 80.1061 14.0859 81.55C13.6906 80.6406 12.9635 79.9256 12.4482 80.71C12.2675 81.0302 12.1411 81.3772 12.074 81.7374C11.4034 80.4393 10.3374 80.6545 10.0762 81.314C9.96733 81.6883 9.96733 82.0851 10.0762 82.4594C10.0762 82.4778 10.0836 82.4954 10.0969 82.5085C10.1101 82.5215 10.1281 82.5288 10.1468 82.5288C10.1655 82.5288 10.1835 82.5215 10.1967 82.5085C10.21 82.4954 10.2174 82.4778 10.2174 82.4594C10.1207 82.1188 10.1207 81.7587 10.2174 81.4181C10.2678 81.3149 10.3434 81.2256 10.4374 81.1581C10.5314 81.0905 10.641 81.047 10.7563 81.0312C10.8716 81.0153 10.989 81.0278 11.0983 81.0675C11.2075 81.1071 11.305 81.1727 11.3822 81.2584C11.9187 81.7235 11.8975 82.3483 12.0881 82.3344C12.1174 82.3306 12.1448 82.3178 12.1663 82.2979C12.1879 82.278 12.2025 82.2519 12.2081 82.2234C12.2717 82.1539 12.5329 79.6549 13.5 81.2445C13.6979 81.592 13.8497 81.9629 13.9518 82.3483C13.9619 82.387 13.9863 82.4205 14.0203 82.4424C14.0542 82.4642 14.0953 82.4728 14.1354 82.4663C14.1748 82.4601 14.2109 82.441 14.2379 82.412C14.2648 82.3829 14.2809 82.3458 14.2836 82.3066C14.2836 82.2372 14.4389 79.7173 15.8296 81.5361C16.1611 81.9916 16.4382 82.4831 16.6556 83.0008C16.6694 83.0367 16.6949 83.067 16.7281 83.0871C16.7613 83.1072 16.8003 83.1159 16.8391 83.1119C16.8765 83.1109 16.9123 83.0972 16.9406 83.0731C16.9689 83.0491 16.9879 83.0162 16.9944 82.98C17.1215 82.7648 17.8345 79.9395 19.204 81.4597C19.4973 81.8104 19.7136 82.2169 19.8393 82.6537C19.8477 82.6929 19.8702 82.7278 19.9026 82.752C19.935 82.7762 19.9752 82.7882 20.0158 82.7856C20.0565 82.7833 20.0953 82.7677 20.1259 82.7413C20.1566 82.7149 20.1775 82.6792 20.1853 82.6399C20.1853 82.5704 20.8488 78.3845 21.9431 78.4748C22.2975 78.5139 22.6319 78.6566 22.9031 78.8843C23.3289 79.2392 23.6792 79.6732 23.9338 80.1616C23.9422 80.1883 23.9611 80.2106 23.9862 80.2236C24.0114 80.2367 24.0408 80.2393 24.0679 80.231C24.0951 80.2228 24.1178 80.2042 24.131 80.1795C24.1442 80.1547 24.1469 80.1258 24.1385 80.0991C24.0613 79.6255 24.0613 79.1428 24.1385 78.6691C24.1563 78.525 24.2084 78.387 24.2906 78.2664C24.3728 78.1458 24.4827 78.0459 24.6115 77.9749C25.5575 91.5185 28.6565 115.836 29.8708 125.11L3.15799 132.094C3.13927 132.099 3.12355 132.112 3.11428 132.129C3.10501 132.146 3.10296 132.165 3.10858 132.184C3.11419 132.202 3.12702 132.218 3.14423 132.227C3.16144 132.236 3.18163 132.238 3.20035 132.232L29.9555 125.402C30.2378 127.533 30.4073 128.782 30.4073 128.782H30.7814C30.3579 132.767 30.7249 132.441 31.9745 132.302C33.3552 132.114 34.7244 131.852 36.076 131.517C36.9944 131.322 37.8924 131.043 38.7585 130.684C38.92 130.61 39.0718 130.517 39.2103 130.407C39.2886 130.347 39.3495 130.268 39.3868 130.178C39.8104 129.053 35.5606 129.331 34.3394 129.421V128.512H34.7559L35.2853 124.006L39.4151 122.93C40.8693 129.338 41.9776 134.148 41.9776 134.148H42.4718C42.4224 134.613 42.3447 135.537 42.3447 136.266C42.3447 137.605 42.4859 137.522 43.6931 137.39C45.0782 137.22 46.4523 136.972 47.8087 136.647C53.2232 135.377 51.8114 134.121 46.065 134.565V134.169H47.258C47.258 130.372 47.3145 125.79 47.3992 120.848L66.7561 115.683C66.7742 115.68 66.7905 115.67 66.8021 115.656C66.8137 115.642 66.82 115.625 66.8196 115.607C66.8196 115.607 66.6926 68.9089 66.6855 68.5271L68.4715 68.305C68.4715 68.8117 68.2527 115.607 68.2527 115.607C68.2527 115.627 68.2609 115.646 68.2754 115.661C68.29 115.675 68.3098 115.683 68.3304 115.683C68.3497 115.681 68.3677 115.672 68.3808 115.658C68.3938 115.644 68.401 115.626 68.4009 115.607C68.4009 115.607 68.6198 68.7562 68.6198 68.2841L70.1658 68.0898C70.1658 68.8673 70.0811 116.162 70.0811 116.162C70.0807 116.185 70.0864 116.208 70.0975 116.229C70.1086 116.25 70.1248 116.267 70.1446 116.28C70.1656 116.29 70.1885 116.295 70.2117 116.295C70.2349 116.295 70.2578 116.29 70.2787 116.28L83.854 112.427C84.2493 114.919 84.694 117.37 85.2094 119.73L85.3153 119.862C85.5204 119.936 85.7303 119.996 85.9436 120.042L85.8871 120.987C85.8876 121.023 85.9028 121.058 85.9294 121.084V121.556L85.4212 121.792C85.2517 121.875 85.0541 121.979 84.8493 122.097L84.5528 122.285C84.4117 122.382 84.2775 122.486 84.1293 122.597C84.1183 122.61 84.1123 122.626 84.1123 122.642C84.1123 122.659 84.1183 122.675 84.1293 122.687C83.6845 122.882 81.1573 124.076 81.5244 125.332C82.0679 127.22 90.4192 123.687 90.4192 123.687V122.993C90.4361 122.99 90.4515 122.981 90.463 122.969C90.4745 122.956 90.4815 122.94 90.4827 122.923C90.5105 122.842 90.5318 122.758 90.5463 122.673C90.5532 122.586 90.5532 122.497 90.5463 122.41V121.591C90.5369 121.525 90.5227 121.46 90.5039 121.396C90.4853 121.311 90.4593 121.227 90.4263 121.146C90.4145 121.108 90.4004 121.071 90.3839 121.035C90.3932 121.006 90.3932 120.974 90.3839 120.945L90.3133 119.702C90.4474 119.64 90.5886 119.577 90.7228 119.501C90.7466 119.49 90.7675 119.474 90.7835 119.453C90.7994 119.433 90.8101 119.409 90.8145 119.383C90.8145 119.383 92.2264 110.414 92.2688 110.123C92.4029 110.123 93.6806 109.81 94.1395 109.692C94.3937 109.63 97.761 108.693 98.0716 108.602L99.8647 108.019C101.277 111.011 102.879 114.135 104.764 117.377L104.919 117.46C104.919 117.46 105.329 117.46 105.929 117.418C106.345 118.564 106.345 118.585 106.437 118.612C106.479 118.779 106.515 118.89 106.564 119.057C106.402 119.223 105.152 120.626 105.307 120.785C104.976 121.132 103.105 123.18 103.896 124.208C105.131 125.749 111.484 119.348 111.484 119.348L111.209 118.696C111.4 118.592 110.934 117.446 110.376 116.884C110.379 116.861 110.379 116.838 110.376 116.815L110.03 116.238C110.334 116.002 110.807 115.419 110.736 115.19C110.736 115.19 109.24 110.713 108.152 105.701L110.27 105.118C110.27 105.118 110.369 105.076 110.369 105.041V20.08C110.369 20.0036 110.369 19.9273 110.27 19.9203L75.2768 15.1097L120.457 10.2504C120.457 11.9025 122.645 129.581 122.645 129.581C122.647 129.598 122.655 129.615 122.668 129.628C122.681 129.641 122.698 129.648 122.716 129.65C122.726 129.65 122.736 129.648 122.745 129.644C122.754 129.64 122.762 129.634 122.769 129.627C122.775 129.62 122.78 129.612 122.783 129.602C122.786 129.593 122.788 129.583 122.787 129.574L120.789 10.0491C120.789 10.0244 120.784 10 120.774 9.97737C120.765 9.95468 120.75 9.93419 120.732 9.91716C120.714 9.89975 120.691 9.88691 120.667 9.87967C120.642 9.87243 120.616 9.871 120.591 9.87551L70.5188 15.3387C70.4482 15.3387 70.2787 15.4012 70.2787 15.4706V50.6935L68.8104 50.7282V14.6307L121.756 8.10534C121.798 10.2365 124.368 130.33 124.368 130.33C124.37 130.349 124.379 130.367 124.393 130.38C124.407 130.393 124.426 130.4 124.446 130.4C124.455 130.4 124.465 130.398 124.474 130.394C124.483 130.39 124.491 130.384 124.498 130.377C124.505 130.37 124.51 130.361 124.513 130.352C124.516 130.343 124.517 130.333 124.516 130.323L122.116 7.91791C122.116 7.8927 122.11 7.86785 122.099 7.84507C122.088 7.8223 122.072 7.80214 122.052 7.78601C122.013 7.75475 121.962 7.73982 121.911 7.74436L68.768 14.3808C68.6974 14.3808 68.5986 14.4502 68.5986 14.5196V50.7352L66.6149 50.7838V13.2978L123.987 5.90477C124.022 7.82766 126.359 131.073 126.359 131.073C126.364 131.089 126.373 131.102 126.387 131.112C126.4 131.121 126.416 131.127 126.433 131.127C126.449 131.127 126.465 131.121 126.479 131.112C126.492 131.102 126.502 131.089 126.507 131.073C126.507 131.073 125.575 74.7262 125.469 68.3883ZM48.3028 59.9123C48.557 62.328 48.5711 63.522 48.6135 64.1746C47.7143 63.9797 46.7875 63.9397 45.8744 64.0566C45.8651 64.0582 45.8561 64.0617 45.8482 64.0668C45.8402 64.0719 45.8334 64.0786 45.8281 64.0864C45.8229 64.0942 45.8192 64.1029 45.8175 64.1121C45.8157 64.1213 45.8159 64.1307 45.8179 64.1399C45.8196 64.1491 45.8232 64.1578 45.8284 64.1657C45.8336 64.1735 45.8403 64.1802 45.8483 64.1854C45.8562 64.1906 45.8651 64.1941 45.8744 64.1958C45.8838 64.1976 45.8934 64.1974 45.9026 64.1954C46.9686 63.9941 48.7829 64.3273 50.6819 64.834C53.0316 65.4833 55.3316 66.2952 57.5648 67.2637C58.2735 67.5492 59.0243 67.7203 59.7885 67.7704C60.9126 67.8709 62.0421 67.8987 63.1699 67.8537H63.2546C63.8924 67.4558 64.5687 67.1209 65.2736 66.8541C65.3158 66.849 65.3585 66.849 65.4007 66.8541C64.9245 67.522 64.3779 68.1386 63.77 68.6937C63.7431 68.7187 63.7249 68.7514 63.7179 68.7872C63.711 68.8229 63.7156 68.8599 63.7313 68.893C63.7469 68.926 63.7726 68.9533 63.8049 68.9711C63.8372 68.9889 63.8744 68.9963 63.9112 68.9922L65.2383 68.8464C64.976 69.3459 64.6245 69.7951 64.2006 70.1723C62.8876 71.2552 61.631 69.7627 58.0307 70.1168C56.6188 70.2556 52.7503 71.7134 49.0229 72.1993C46.8133 72.5048 44.6531 72.477 43.1001 71.5954C41.6882 70.8179 40.6505 69.2491 39.8457 67.5136C38.807 65.1149 38.0743 62.5991 37.6643 60.0233C38.4479 60.0233 47.8228 59.9331 48.3099 59.9192L48.3028 59.9123ZM64.8218 68.4785L64.363 68.5271L64.7724 68.1036C64.7647 68.2305 64.7814 68.3577 64.8218 68.4785ZM48.8394 72.5256C52.5455 72.0744 56.6894 70.5402 58.0589 70.443C60.2968 70.2209 61.518 70.7346 63.0005 70.9081C64.6312 71.1025 65.6337 68.7492 65.6972 68.6798L66.5443 68.5757C66.5443 68.9853 66.4808 81.071 66.4808 81.5083C65.3301 78.6691 63.4805 78.6899 63.2264 80.8142C62.9723 80.12 62.4216 78.8288 61.7016 78.6552C60.9815 78.4817 60.6356 79.0509 60.4238 79.6757C60.0991 79.1689 59.5485 78.5025 58.9414 78.44C58.3342 78.3776 57.6354 79.4883 57.3318 80.0991C57.2788 79.8153 57.1812 79.5412 57.0424 79.2869C56.986 79.1607 56.9019 79.0483 56.7963 78.9576C56.6906 78.867 56.5659 78.8004 56.4311 78.7626C56.2962 78.7248 56.1545 78.7168 56.0162 78.739C55.8778 78.7612 55.7461 78.8132 55.6305 78.8913C55.3813 79.1348 55.1887 79.4284 55.0657 79.7521C54.8955 80.1696 54.7563 80.5989 54.6492 81.0363C54.5857 80.474 54.4375 79.9325 53.8515 79.9187C53.6016 79.9367 53.3597 80.0128 53.1456 80.1408C52.9926 79.9139 52.7988 79.7163 52.5738 79.5577C51.9455 79.1342 50.9784 79.037 50.8442 79.9534C50.4277 79.2175 48.9594 77.9402 48.564 78.6344C48.7405 71.6509 48.8605 72.9629 48.8394 72.5464V72.5256ZM48.2887 59.7526C47.8087 59.7526 36.7466 59.6485 36.2383 59.6485C36.1928 59.0176 36.1928 58.3843 36.2383 57.7534C36.4713 57.7534 38.5397 57.8228 39.1044 57.8367C39.6692 57.8506 44.752 57.8367 45.1544 57.8367L48.0769 57.7395C48.1405 58.4406 48.2181 59.114 48.2887 59.7526ZM35.9913 36.2892C35.8174 36.0487 35.6662 35.7931 35.5395 35.5256C35.4498 35.3313 35.372 35.132 35.3065 34.9286C38.0589 34.858 40.7932 34.4689 43.453 33.7693C42.8953 36.0324 42.7047 35.0119 42.3447 37.3444H41.7517C41.6952 37.15 42.0976 35.1369 40.5657 34.9286C40.3924 34.9033 40.2157 34.9125 40.0461 34.9557C39.8765 34.999 39.7174 35.0753 39.5784 35.1803C39.4395 35.2852 39.3234 35.4165 39.2371 35.5665C39.1508 35.7165 39.0961 35.882 39.0762 36.0532C39.0168 36.4199 39.1027 36.7951 39.3162 37.1014C39.505 37.3455 39.7706 37.5212 40.0716 37.6012C39.8735 37.912 39.6172 38.1829 39.3162 38.3995C38.7162 38.8646 37.4031 38.3579 36.7184 38.0108C36.8949 37.6429 37.0078 37.393 37.0078 37.393C37.0265 37.3529 37.0297 37.3075 37.0167 37.2653C37.0037 37.223 36.9754 37.187 36.9372 37.1639C36.5714 36.9301 36.251 36.6339 35.9913 36.2892ZM36.6548 38.1913C37.1376 38.4703 37.6581 38.6806 38.2008 38.816C38.5564 38.9183 38.9359 38.9061 39.2839 38.7812C39.6319 38.6564 39.9302 38.4253 40.1351 38.1218C40.354 37.8789 40.6222 37.4277 40.3045 37.386C40.1623 37.3691 40.0253 37.323 39.9023 37.2507C39.7794 37.1785 39.6732 37.0816 39.5907 36.9665C39.5082 36.8513 39.4512 36.7204 39.4234 36.5822C39.3955 36.444 39.3975 36.3016 39.4292 36.1643C39.4438 36.0397 39.4839 35.9193 39.547 35.8103C39.6102 35.7014 39.6951 35.6061 39.7966 35.5302C39.8982 35.4543 40.0143 35.3994 40.138 35.3688C40.2617 35.3382 40.3903 35.3325 40.5163 35.3521C40.7754 35.4021 41.007 35.5431 41.1681 35.7487C41.3292 35.9544 41.4086 36.2106 41.3917 36.4697C41.4623 37.1083 41.2293 37.7886 41.5823 37.7748L42.5 37.7123C42.5403 37.7109 42.5788 37.6955 42.6085 37.6688C42.6383 37.6421 42.6574 37.6058 42.6624 37.5665C42.6624 37.5665 42.733 36.9417 42.853 36.3864C43.093 35.2896 43.2766 35.838 43.6648 33.7554C45.0343 33.4083 46.0862 33.0612 46.6651 32.9224C46.6651 34.165 47.6604 36.5599 47.9358 37.4277C47.5475 37.4624 47.0957 37.3166 47.1098 37.6082C47.2157 39.4755 46.6721 40.5029 45.9026 41.0791C45.2474 41.4907 44.4763 41.6876 43.7001 41.6414C43.1736 41.6324 42.6499 41.5625 42.14 41.4331C41.8011 41.329 42.0694 42.1967 42.02 43.4254C40.1634 41.8982 37.8408 40.7042 35.4336 40.6834C35.9207 39.7115 36.6195 38.2676 36.6548 38.1913ZM38.6173 130.365C37.7726 130.709 36.8985 130.978 36.0054 131.17C34.5935 131.517 32.9557 131.809 31.9321 131.941C31.628 131.984 31.3215 132.009 31.0144 132.017C30.7532 131.365 30.9226 128.963 30.9226 128.734L34.2193 128.532L34.1558 129.525C34.1489 129.55 34.1489 129.576 34.1558 129.601C34.1681 129.607 34.1813 129.609 34.1946 129.609C34.208 129.609 34.2212 129.607 34.2335 129.601C36.196 129.643 40.4104 129.567 38.6173 130.365ZM35.37 123.604L36.556 113.427C32.8498 96.7665 32.8498 92.4348 32.8498 92.4348C33.6475 97.1136 36.9584 111.927 39.3727 122.562L35.37 123.604ZM42.7542 137.119C42.7542 137.119 42.7259 137.133 42.733 137.119H42.7542ZM50.3783 135.481C48.7829 136.231 43.6789 137.203 42.7471 137.133C42.5938 136.141 42.5606 135.134 42.6483 134.134H45.9591C45.9591 134.475 45.8885 134.634 45.9591 134.704C45.9841 134.713 46.0118 134.713 46.0368 134.704C47.9075 134.759 52.1573 134.641 50.3571 135.481H50.3783ZM47.0957 73.4766C45.8109 73.6155 44.519 73.7196 43.2271 73.796C41.9353 73.8723 40.7987 73.907 39.5845 73.914C38.3703 73.9209 37.1137 73.914 35.8783 73.8237C29.2425 73.4627 25.4939 72.116 24.9645 71.9286C24.6327 71.8175 24.5974 71.7967 24.5268 71.7689C24.2784 69.1663 24.1723 66.5524 24.2091 63.9385C24.2547 61.3525 24.4669 58.7719 24.8445 56.2123C25.2881 52.7963 26.3194 49.4794 27.8941 46.4035C30.2025 42.2384 33.0828 40.8014 35.8924 41.0027C39.175 41.2387 42.3518 43.6475 44.3637 46.3271C45.6556 48.0209 46.5521 50.5477 47.1875 53.1648C47.5475 54.6504 47.8087 56.1706 48.0134 57.5868L43.9048 57.4965C43.3118 57.4965 36.4431 57.5868 36.2101 57.6006C36.2101 56.8023 36.3019 55.9277 36.3654 55.1432C36.4784 53.7549 36.5984 52.6164 36.5984 52.6164C36.5984 52.6164 36.5984 52.54 36.5348 52.54C36.525 52.538 36.5149 52.5381 36.5051 52.5403C36.4953 52.5424 36.4861 52.5466 36.4781 52.5525C36.4701 52.5584 36.4635 52.5659 36.4586 52.5745C36.4538 52.5832 36.4509 52.5927 36.4501 52.6025C36.4501 52.6025 36.3089 53.5397 36.1536 54.7545C36.076 55.4487 35.9913 56.1915 35.9277 56.9203C35.8243 57.8965 35.8243 58.8806 35.9277 59.8567C35.9345 59.896 35.9552 59.9315 35.9863 59.957C36.0174 59.9824 36.0567 59.9961 36.0971 59.9956H37.509C37.891 62.6038 38.6025 65.155 39.6268 67.59C40.4387 69.3879 41.5329 71.0123 42.9589 71.8314C44.3662 72.5255 45.9466 72.8074 47.5122 72.6436C47.8557 72.6436 48.2017 72.6158 48.5499 72.5603C48.4674 72.7846 48.4674 73.0302 48.5499 73.2545L47.0957 73.4766ZM60.3603 117.162L47.4275 120.466C47.6887 105.715 48.5076 79.037 48.5076 79.037C48.5269 79.0353 48.5449 79.0265 48.558 79.0124C48.571 78.9982 48.5782 78.9798 48.5782 78.9607C48.5782 78.9607 48.5782 78.5858 48.8535 78.5789C49.1607 78.6248 49.4451 78.7658 49.6653 78.9815C49.9862 79.2204 50.2631 79.5116 50.4842 79.8423C50.6178 80.0472 50.7223 80.2691 50.7948 80.5018C50.8196 80.6612 50.855 80.8189 50.9007 80.9738C50.9099 81.0012 50.9281 81.0249 50.9523 81.0412C50.9765 81.0575 51.0055 81.0655 51.0348 81.0641C51.0647 81.0591 51.0919 81.0438 51.1113 81.0209C51.1307 80.9979 51.1411 80.9689 51.1407 80.9391C51.1339 80.8071 51.1101 80.6765 51.0701 80.5504C51.0392 80.3176 51.0585 80.0811 51.1266 79.8562C51.156 79.759 51.2199 79.6754 51.3067 79.6206C51.3935 79.5658 51.4975 79.5435 51.5996 79.5577C51.8825 79.5686 52.1555 79.663 52.3832 79.8284C52.6115 79.992 52.7977 80.206 52.9268 80.4532C52.9373 80.4737 52.9521 80.4918 52.9704 80.5062C52.9887 80.5206 53.0099 80.5309 53.0326 80.5365C53.0527 80.5449 53.0743 80.5492 53.0962 80.5492C53.118 80.5492 53.1396 80.5449 53.1597 80.5365C53.3665 80.3906 53.6115 80.3063 53.8656 80.2935C53.9318 80.2934 53.9967 80.3115 54.0528 80.3459C54.109 80.3803 54.1542 80.4295 54.1833 80.4879C54.3014 80.7842 54.3612 81.0998 54.3598 81.4181C54.3775 81.9229 54.3633 82.4283 54.3174 82.9314C54.3234 82.9602 54.337 82.9869 54.3568 83.0088C54.3767 83.0308 54.402 83.0472 54.4304 83.0564C54.4527 83.0593 54.4753 83.0578 54.497 83.052C54.5187 83.0463 54.539 83.0363 54.5567 83.0227C54.5745 83.0092 54.5893 82.9923 54.6003 82.973C54.6114 82.9538 54.6184 82.9325 54.621 82.9106C54.7419 82.0254 54.9403 81.1521 55.214 80.3005C55.3295 79.9175 55.5136 79.5578 55.7576 79.2384C55.7967 79.1852 55.8474 79.1414 55.9061 79.1101C55.9647 79.0789 56.0298 79.061 56.0964 79.0579C56.23 79.0634 56.3597 79.1044 56.4715 79.1765C56.5834 79.2486 56.6733 79.3492 56.7318 79.4674C56.9324 79.872 57.0385 80.3155 57.0424 80.7656C57.0415 80.8062 57.0552 80.8458 57.081 80.8775C57.1068 80.9092 57.1431 80.931 57.1836 80.9391C57.2255 80.9469 57.2689 80.94 57.3062 80.9198C57.3436 80.8995 57.3726 80.8671 57.3883 80.828C57.5983 80.3149 57.8608 79.8241 58.1719 79.3633C58.2953 79.1934 58.44 79.0395 58.6025 78.9051C58.6887 78.8366 58.7953 78.7976 58.9061 78.7941C59.1643 78.8409 59.3984 78.9732 59.5696 79.1689C59.8676 79.4762 60.1217 79.8218 60.325 80.1963C60.3422 80.2283 60.3691 80.2542 60.4021 80.2704C60.435 80.2866 60.4722 80.2922 60.5085 80.2866C60.5441 80.2797 60.577 80.263 60.6032 80.2384C60.6295 80.2138 60.6481 80.1824 60.6568 80.1477C60.7153 79.7926 60.8606 79.4567 61.0804 79.1689C61.1437 79.0901 61.2281 79.0302 61.3241 78.9959C61.4201 78.9616 61.5239 78.9542 61.6239 78.9746C61.7662 79.0183 61.8932 79.1 61.991 79.2106C62.1619 79.3973 62.3111 79.6022 62.4358 79.8215C62.7463 80.3937 63.0015 80.9933 63.1982 81.6125C63.2081 81.6456 63.2302 81.674 63.2602 81.6919C63.2903 81.7099 63.326 81.7162 63.3605 81.7096C63.3773 81.7079 63.3935 81.703 63.4082 81.695C63.423 81.6871 63.436 81.6764 63.4465 81.6634C63.457 81.6505 63.4648 81.6357 63.4694 81.6198C63.4741 81.6039 63.4754 81.5872 63.4735 81.5708C63.4326 81.0555 63.5023 80.5376 63.6782 80.0506C63.7297 79.9027 63.8239 79.7727 63.9493 79.6766C64.0746 79.5804 64.2257 79.5222 64.3842 79.5091C64.5841 79.5227 64.7788 79.5781 64.9552 79.6714C65.1317 79.7648 65.286 79.894 65.4078 80.0506C65.8136 80.5307 66.1421 81.0691 66.382 81.6472C66.3851 81.6559 66.39 81.6639 66.3963 81.6708C66.4027 81.6776 66.4104 81.6831 66.4189 81.687C66.4275 81.6909 66.4367 81.6931 66.4461 81.6934C66.4556 81.6937 66.4649 81.6921 66.4737 81.6888C66.4737 81.6888 66.6643 115.211 66.6714 115.579C66.2902 115.683 63.9465 116.252 60.3603 117.162ZM65.676 68.4785C65.5772 68.3466 65.4289 68.4369 65.1113 68.4785C65.1573 68.2612 65.1427 68.0357 65.0689 67.826C65.2525 67.6177 65.4219 67.4095 65.549 67.2359C65.6671 67.0914 65.7449 66.9192 65.7749 66.7361C65.7759 66.6823 65.7594 66.6296 65.7276 66.5859C65.6958 66.5421 65.6505 66.5096 65.5984 66.4931C65.3875 66.4586 65.1709 66.4876 64.9771 66.5764C64.9771 66.3543 64.9348 62.5432 64.9207 62.0781C64.9207 61.4256 64.5465 53.7479 64.5324 53.5258L66.6502 53.4078C66.6502 53.6993 66.7702 62.3558 66.7914 63.1264C66.7914 63.6539 67.0173 68.1522 67.0314 68.3466L65.676 68.4785ZM77.0911 114.128L70.3988 115.947C70.3988 115.322 70.314 68.7909 70.307 68.0481L72.206 67.8121C72.3542 67.8121 72.3472 68.0481 72.3472 63.1958C75.5945 62.1545 79.4066 59.7248 81.0373 56.5733V62.9528C77.7617 63.0569 78.0864 63.2999 76.6604 62.4322C76.3854 62.2458 76.0863 62.0963 75.771 61.9879C75.7093 61.964 75.6423 61.9569 75.5769 61.9674C75.5115 61.9779 75.4502 62.0056 75.3996 62.0476C75.3489 62.0896 75.3107 62.1443 75.2891 62.2059C75.2675 62.2675 75.2633 62.3337 75.2768 62.3975C75.3192 62.8417 75.9827 63.4943 75.778 63.9594C75.3228 64.9037 74.6767 65.747 73.879 66.4376C73.5755 66.6597 73.4414 66.5834 73.4131 66.7569C73.4085 66.7942 73.4164 66.832 73.4355 66.8645C73.4546 66.8971 73.4839 66.9227 73.519 66.9374C74.1614 67.0485 75.3474 67.8537 76.9569 66.4862C77.2429 66.2543 77.501 65.9911 77.7264 65.7018L81.0514 66.271C81.0514 72.4354 81.1079 78.1485 81.2985 83.7089C81.4044 86.8883 81.5808 90.387 81.835 94.0592C82.1244 98.2243 82.5409 102.605 83.0845 106.964C83.3104 108.755 83.5716 110.532 83.8469 112.302L77.0911 114.128ZM72.3472 63.043V55.2057C72.7707 54.699 72.9754 54.5115 74.465 52.6164C75.3192 52.7205 79.5124 53.4078 80.9808 56.3719C80.9694 56.3677 80.9569 56.3677 80.9455 56.3719C79.2512 59.343 75.5098 61.7449 72.3472 63.0569V63.043ZM84.7082 33.0751C85.4141 32.3393 84.6023 31.423 85.3435 30.7218C85.4984 30.5457 85.6874 30.4015 85.8995 30.2978C86.1116 30.1942 86.3425 30.133 86.5789 30.1179C85.918 30.9857 85.4885 32.0023 85.3294 33.0751H84.7082ZM85.2941 33.2626C85.1684 34.02 85.1023 34.7859 85.0964 35.5534H84.7011C84.7011 35.3312 84.4893 33.4708 84.4611 33.2764L84.5458 33.214L85.2941 33.2626ZM86.7836 30.0415C87.3602 29.7995 87.9783 29.6676 88.6049 29.6528C89.205 29.1946 90.4969 28.3825 90.4969 28.3825C89.991 28.7664 89.5187 29.1914 89.085 29.6528C89.0144 29.7986 89.3674 29.7639 89.7909 29.7014C90.0112 29.8405 90.2048 30.0167 90.3627 30.222C91.231 31.3605 89.9674 32.131 90.9275 33.0474H88.8097C88.7914 33.041 88.7715 33.041 88.7532 33.0474C88.7489 33.0548 88.7466 33.0631 88.7466 33.0717C88.7466 33.0802 88.7489 33.0886 88.7532 33.096V33.9845C88.6327 33.8854 88.4842 33.825 88.3277 33.8114C88.1712 33.7977 88.0142 33.8315 87.8778 33.9082C87.9908 32.7836 88.4779 32.9849 85.5906 33.0057C85.7388 32.0963 86.113 30.6594 86.7201 30.0763C86.7336 30.073 86.7462 30.067 86.7571 30.0586C86.7681 30.0502 86.7771 30.0397 86.7836 30.0277V30.0415ZM92.064 33.8318C91.9833 34.4159 91.8702 34.9953 91.7252 35.5673H89.1556C89.1556 35.3451 88.9297 33.4083 88.9085 33.2209L91.3228 33.3459C91.6405 33.5125 91.9299 33.5958 92.064 33.8179V33.8318ZM87.6731 33.3667L87.3696 35.5673H85.4282C85.4348 34.8055 85.4914 34.0449 85.5976 33.2903L87.6731 33.3667ZM85.4282 35.8519H87.546C87.8143 35.8519 87.6872 35.5256 87.9131 34.1858H88.1602C88.0331 34.4913 87.5249 35.9768 87.8567 36.0324H88.612C88.6294 36.033 88.6465 36.0279 88.6606 36.0178C88.6747 36.0077 88.6849 35.9933 88.6897 35.9768C88.6918 35.9594 88.6871 35.9419 88.6767 35.9277C88.6662 35.9136 88.6507 35.9038 88.6332 35.9005C88.5626 35.9005 88.3296 35.7963 88.0755 35.7339C88.206 35.213 88.2817 34.6803 88.3014 34.1442C88.4128 34.1438 88.5231 34.165 88.6261 34.2067C88.6996 34.2325 88.7705 34.265 88.8379 34.3038C88.8379 34.4357 88.7885 33.804 88.9014 35.6922C88.9014 35.8658 88.8661 35.8449 91.7887 35.8796C91.9935 36.5738 93.13 37.0597 92.6782 37.7123C92.3535 38.1843 91.3087 38.7466 91.824 39.3714C92.1721 39.6804 92.5804 39.9165 93.0241 40.0656C92.9816 40.1606 92.9162 40.244 92.8335 40.3085C92.0005 41.1068 92.057 42.3911 93.4548 41.7524C93.4639 41.7404 93.4689 41.7258 93.4689 41.7108C93.4689 41.6958 93.4639 41.6811 93.4548 41.6691C93.442 41.6584 93.4257 41.6525 93.4089 41.6525C93.392 41.6525 93.3758 41.6584 93.363 41.6691C92.0782 42.1481 92.3958 41.0305 92.9747 40.5237C94.2383 39.413 90.8569 39.8295 92.41 38.4412C92.5999 38.2855 92.7705 38.1085 92.9182 37.9136C93.3136 37.3374 92.9182 36.8307 92.417 36.317C92.272 36.1832 92.1588 36.0196 92.0852 35.838C92.1092 35.8134 92.1241 35.7816 92.1276 35.7477C92.297 34.519 92.6217 34.3594 92.3888 33.7693C92.4382 33.2556 92.4947 33.2001 92.3888 33.0751C92.3753 33.0583 92.3581 33.0445 92.3386 33.0349C92.3191 33.0253 92.2977 33.0201 92.2758 33.0196H91.4075C89.9109 32.1796 91.9229 30.937 89.9604 29.632L90.4686 29.5348C90.9275 29.4584 91.4287 29.6459 91.4075 30.0415C91.3369 31.2911 92.5723 30.2359 92.4523 31.5202C92.3888 32.1519 92.65 31.9714 93.0241 32.4018C93.3983 32.8322 93.3136 32.8669 93.1441 33.4014C92.9747 33.9359 93.2359 34.0123 93.4901 34.2483C93.8642 34.6162 92.8547 35.4215 93.9842 35.838C94.316 35.9074 94.3584 35.6644 94.6337 35.5048C95.2196 35.1785 95.5232 35.3521 95.6714 35.9005C95.7196 36.0634 95.7313 36.2346 95.7057 36.4024C95.6802 36.5702 95.6179 36.7305 95.5232 36.8723C95.1917 37.2987 94.7399 37.6198 94.2242 37.7956C94.1875 37.8082 94.1566 37.8334 94.1372 37.8665C94.1178 37.8996 94.1111 37.9385 94.1183 37.9761C94.2878 38.941 94.2807 39.0312 94.7466 41.1554C91.2805 43.2866 89.5227 41.8496 89.1485 41.4609V40.2599C89.1538 40.2479 89.1565 40.2349 89.1565 40.2218C89.1565 40.2086 89.1538 40.1956 89.1485 40.1836C89.1236 40.1739 89.0958 40.1739 89.0709 40.1836C88.539 40.1803 88.0141 40.0643 87.5319 39.8434C87.0504 39.6286 86.629 39.3022 86.3036 38.8924C85.6794 38.0013 85.3717 36.9325 85.4282 35.8519ZM93.8995 60.5093C94.4647 59.2278 95.1205 57.9868 95.862 56.7954C95.862 56.7954 101.262 57.6978 103.564 60.8286C103.564 60.8286 99.4552 66.2849 97.168 66.9582C94.8807 67.6316 87.9908 66.7778 81.0867 66.2155C81.0888 66.1981 81.0842 66.1806 81.0737 66.1664C81.0632 66.1522 81.0477 66.1425 81.0302 66.1391C77.6135 65.4449 77.6135 65.3269 77.5005 65.4449C77.2605 65.6115 76.2086 67.4581 73.9708 66.7639C74.8523 66.0267 75.5604 65.1101 76.0463 64.0774C76.2863 63.3832 75.4321 62.5085 75.5521 62.3003C75.6211 62.2998 75.6891 62.3165 75.7498 62.3489C77.1617 62.8903 76.7946 63.4249 79.0677 63.2791C79.9854 63.2166 80.9808 63.0986 80.9808 63.0986C80.9901 63.0977 80.9991 63.095 81.0073 63.0907C81.0156 63.0864 81.0229 63.0805 81.0288 63.0734C81.0347 63.0663 81.0391 63.0582 81.0418 63.0494C81.0444 63.0406 81.0453 63.0313 81.0443 63.0222C82.8856 62.8532 84.7165 62.589 86.5295 62.2309C87.7437 61.8907 92.9394 60.4746 93.9207 60.5162L93.8995 60.5093ZM90.2357 122.937C90.2307 122.947 90.2281 122.958 90.2281 122.968C90.2281 122.979 90.2307 122.99 90.2357 123C89.685 123.583 85.6188 124.812 85.6188 124.812C85.364 123.977 84.8414 123.247 84.1293 122.729L84.5811 122.555L84.9058 122.417C85.1247 122.319 85.3153 122.215 85.4776 122.132L86.0494 121.827C86.0767 121.815 86.0998 121.795 86.1161 121.77C86.1324 121.746 86.1411 121.717 86.1412 121.688V121.146H90.0309V121.584C90.0309 121.667 90.0309 121.854 90.0733 122C90.1157 122.146 90.0733 122.271 90.1157 122.417C90.158 122.562 90.1157 122.562 90.1157 122.632C90.1157 122.701 90.2427 122.833 90.2568 122.944L90.2357 122.937ZM86.6071 120.674C86.6037 120.707 86.6037 120.739 86.6071 120.771V120.848H86.0989L86.0565 120.084C86.2382 120.124 86.422 120.155 86.6071 120.174V120.265C86.6033 120.304 86.6033 120.343 86.6071 120.383V120.508C86.6092 120.566 86.6163 120.624 86.6283 120.681L86.6071 120.674ZM86.9601 120.403V120.23C87.2728 120.248 87.5863 120.248 87.899 120.23V120.619C87.8956 120.651 87.8956 120.684 87.899 120.716V120.757H86.9601V120.695C86.9635 120.663 86.9635 120.63 86.9601 120.598C86.9636 120.549 86.9636 120.501 86.9601 120.452V120.403ZM89.1697 120.556C89.1752 120.639 89.1918 120.721 89.2191 120.799H88.1814C88.1848 120.767 88.1848 120.734 88.1814 120.702C88.1849 120.653 88.1849 120.605 88.1814 120.556V120.258C88.5263 120.227 88.8684 120.171 89.205 120.091V120.542L89.1697 120.556ZM89.5227 120.258C89.5265 120.211 89.5265 120.165 89.5227 120.119C89.5267 120.075 89.5267 120.031 89.5227 119.987C89.7175 119.932 89.9086 119.865 90.0945 119.786L90.038 120.806H89.5227C89.5276 120.762 89.5276 120.718 89.5227 120.674C89.5296 120.637 89.5296 120.6 89.5227 120.563C89.5262 120.508 89.5262 120.452 89.5227 120.397C89.5509 120.355 89.5438 120.306 89.5438 120.265L89.5227 120.258ZM98.9046 108.082C98.6152 108.151 98.2763 108.227 97.9092 108.325C97.5421 108.422 94.2313 109.331 93.9771 109.408L92.2264 109.977C92.6211 107.531 93.0329 105.087 93.4618 102.646C93.8151 100.308 94.2982 97.9907 94.909 95.7044C95.2125 96.6415 95.5443 97.6134 95.8973 98.613C96.5609 100.453 97.3092 102.389 98.1704 104.409C98.6505 105.541 99.1729 106.7 99.7235 107.88L98.9046 108.082ZM104.955 117.106C102.531 112.956 100.367 108.665 98.474 104.257C97.6127 102.251 96.8574 100.321 96.1867 98.4881C95.0045 95.2506 93.9913 91.9559 93.1512 88.6168C92.2654 85.2868 91.6656 81.8896 91.3581 78.4609C91.3582 78.4511 91.3561 78.4415 91.3521 78.4326C91.3482 78.4237 91.3423 78.4157 91.335 78.4092C91.3277 78.4026 91.319 78.3977 91.3096 78.3946C91.3002 78.3916 91.2903 78.3905 91.2805 78.3914C91.2611 78.3932 91.2431 78.402 91.2301 78.4161C91.217 78.4303 91.2098 78.4487 91.2099 78.4678C91.486 81.9106 92.0575 85.3242 92.9182 88.6723C93.4053 90.6924 94.0336 92.9763 94.8384 95.4684C94.1525 97.8104 93.6242 100.194 93.2571 102.605C92.7629 105.242 90.518 118.682 90.4333 119.265C89.6835 119.636 88.8641 119.851 88.0261 119.897C87.1925 119.95 86.3563 119.846 85.5623 119.591C84.1788 112.857 83.1935 106.05 82.6115 99.2031C82.2162 94.8714 81.9409 90.6577 81.7503 86.805C81.5738 83.334 81.2208 68.6104 81.2138 68.062C88.9411 69.2337 96.8262 68.9201 104.432 67.1387C104.432 67.3539 104.538 88.6584 104.545 90.1718C104.6 92.847 104.81 95.517 105.173 98.1688C105.385 99.8626 105.653 101.64 105.978 103.458C106.218 104.763 106.486 106.089 106.783 107.388C107.538 110.678 109.522 116.162 109.522 116.162C108.343 116.877 106.296 117.12 104.947 117.141L104.955 117.106ZM109.282 117.106L108.35 117.488V117.405C108.312 117.293 108.257 117.188 108.188 117.092C108.507 117.009 108.821 116.905 109.127 116.78C109.145 116.902 109.196 117.017 109.275 117.113L109.282 117.106ZM108.054 117.613L107.185 117.981C107.142 117.747 107.048 117.524 106.91 117.328C107.221 117.28 107.545 117.224 107.87 117.148V117.314C107.925 117.426 107.996 117.529 108.082 117.62L108.054 117.613ZM106.486 118.307C106.366 118.057 106.162 117.668 106.042 117.439L106.621 117.377C106.669 117.63 106.778 117.868 106.938 118.071L106.486 118.307ZM110.891 118.411C110.955 118.531 111.033 118.643 111.124 118.744C110.842 119.494 107.552 122.153 107.552 122.153C106.996 121.471 106.231 120.984 105.371 120.764C107.157 119.098 106.903 119.126 106.578 118.585C107.242 118.328 108.117 117.967 108.767 117.689C109.416 117.412 109.614 117.321 110.178 117.044C110.38 117.517 110.623 117.973 110.906 118.404L110.891 118.411ZM110.044 116.842L109.557 117.016C109.54 116.878 109.484 116.748 109.395 116.641C109.55 116.567 109.698 116.481 109.84 116.384L110.044 116.842ZM110.136 115.627C109.995 115.812 109.823 115.972 109.628 116.1C108.511 113.263 107.646 110.336 107.044 107.353C106.762 106.055 106.508 104.736 106.282 103.424C105.971 101.626 105.71 99.8417 105.498 98.1549C105.145 95.5159 104.935 92.8604 104.87 90.1995C104.87 88.5057 104.616 71.519 104.552 67.1318L105.258 66.9513C105.258 67.6455 105.35 88.6515 105.357 90.1995C105.405 92.8033 105.589 95.403 105.908 97.9883C106.098 99.6335 106.338 101.376 106.613 103.139C106.839 104.416 107.086 105.701 107.369 106.964C107.995 109.939 108.905 112.849 110.087 115.655L110.136 115.627ZM110.313 115.287C110.29 115.352 110.262 115.415 110.228 115.475C109.588 113.913 109.051 112.314 108.618 110.685C107.949 108.168 107.409 105.619 107.002 103.049C106.712 101.293 106.472 99.5779 106.296 97.9119C105.943 94.8158 105.766 92.0599 105.752 90.1648C105.752 88.6098 105.456 67.4997 105.442 66.8819L106.148 66.6875C106.148 67.9301 106.599 95.3434 106.599 97.3843C106.661 99.8354 106.954 102.276 107.475 104.673C108.221 108.257 109.166 111.798 110.306 115.28L110.313 115.287ZM108.788 60.6412C108.993 60.8357 109.134 61.087 109.192 61.3618C109.249 61.6367 109.221 61.9222 109.11 62.1808C108.999 62.4393 108.811 62.6588 108.571 62.8102C108.331 62.9617 108.049 63.038 107.764 63.0292C105.95 63.0292 105.865 60.2524 107.764 60.1691C107.958 60.177 108.149 60.2228 108.324 60.3039C108.5 60.3849 108.658 60.4996 108.788 60.6412ZM108.216 63.3138C108.117 68.1036 108.11 68.9506 107.143 68.9644C106.373 68.9644 106.437 68.0481 106.437 67.9787C106.438 67.9624 106.434 67.9463 106.425 67.9325C106.416 67.9188 106.403 67.9082 106.388 67.9023C106.388 67.2081 106.331 62.6127 106.331 62.6127C106.529 62.9074 106.816 63.1336 107.152 63.2594C107.487 63.3852 107.855 63.4042 108.202 63.3138H108.216ZM70.6035 15.5956L74.6273 15.1721L110.03 20.2258C110.03 21.5725 110.115 104.222 110.115 105.013L108.047 105.597C107.983 105.277 107.912 104.951 107.849 104.632C107.33 102.254 107.035 99.8355 106.966 97.4052C106.966 95.3643 106.444 70.8526 106.381 68.8048C106.684 69.4157 107.898 69.5753 108.251 68.3605C108.604 67.1457 108.463 64.5841 108.357 63.2652C108.592 63.1768 108.806 63.0421 108.985 62.8695C109.145 62.7103 109.271 62.5215 109.355 62.3141C109.44 62.1067 109.482 61.8848 109.479 61.6613C109.475 61.4378 109.427 61.2172 109.336 61.0123C109.245 60.8074 109.114 60.6222 108.95 60.4676C108.762 60.2991 108.538 60.1724 108.296 60.0961C108.053 60.0197 107.796 59.9956 107.543 60.0252C107.29 60.0548 107.047 60.1375 106.829 60.2678C106.611 60.398 106.425 60.5727 106.282 60.78V57.4688C106.282 57.4688 107.729 52.1721 105.773 48.5485C102.95 43.3143 96.0455 41.4678 94.9443 41.204C94.8949 40.7667 94.6901 39.2187 94.4995 38.0802C95.0366 37.8765 95.5024 37.5246 95.8408 37.0667C95.9628 36.8882 96.041 36.6844 96.0691 36.4711C96.0973 36.2579 96.0747 36.0412 96.0032 35.838L95.9608 35.7269C96.7813 34.372 97.0344 32.7566 96.6668 31.2217C98.0151 31.0065 97.7398 30.0624 98.1563 29.2849C98.5728 28.5074 99.4552 27.6883 98.7846 26.5082C98.114 25.328 97.5351 25.571 96.9421 25.1614C96.3491 24.7519 95.8761 24.8005 94.9655 25.0226C94.0548 25.2447 94.4007 25.21 93.6595 24.8629C92.9182 24.5158 92.3111 24.6616 91.4922 25.7793C90.6733 26.8969 91.7605 27.9868 91.7605 27.9868C88.4426 27.7785 86.9672 29.6806 86.7201 30.0346C86.6495 30.0346 86.113 29.7569 85.1529 30.5761C84.1928 31.3952 85.1529 32.4573 84.2634 33.0335C83.9246 33.2626 83.5575 33.4708 83.3175 33.6791C83.0929 33.8374 82.9052 34.0409 82.7668 34.2761C82.0609 35.5881 84.9905 35.2757 82.4421 37.1847C81.2702 38.0663 82.3927 38.3579 82.4421 38.9757C82.4421 39.2187 82.2515 39.3089 82.0962 39.2117C82.0821 39.2016 82.0646 39.1974 82.0474 39.2C82.0302 39.2026 82.0147 39.2118 82.0044 39.2256C81.9941 39.2394 81.9898 39.2567 81.9925 39.2736C81.9951 39.2905 82.0045 39.3057 82.0185 39.3158C82.4068 39.5935 82.9645 39.1354 82.3221 38.2885C81.8209 37.5943 82.6609 37.5457 83.388 36.8237C83.7975 36.4142 83.9175 36.1295 83.8469 35.8172C83.5716 34.6926 81.8915 35.0258 84.2987 33.4014C84.4046 36.2267 84.1716 35.8588 85.0752 35.8866C85.0258 37.622 85.6682 39.42 87.3766 40.128C87.8704 40.3315 88.4014 40.4331 88.9367 40.4265L89.0214 41.4053C81.7714 43.5643 78.2559 47.4794 74.0202 52.6372C73.4181 53.3434 72.8639 54.0877 72.3613 54.8656V50.8185C72.3619 50.7948 72.3571 50.7714 72.3473 50.7497C72.3376 50.7281 72.323 50.7089 72.3048 50.6935C72.2693 50.6583 72.2211 50.6383 72.1707 50.638L70.5964 50.6796L70.6035 15.5956ZM68.8669 51.0753L72.0012 50.999C72.0012 51.9847 72.0436 67.1665 72.0436 67.59L67.2079 68.2841C67.2079 68.0759 67.1444 61.5714 67.1232 60.8008C67.1232 60.1622 66.8479 53.6785 66.8338 53.3939L68.7963 53.262C68.8338 53.2587 68.8688 53.242 68.8948 53.2152C68.9207 53.1884 68.9359 53.1532 68.9375 53.1162L68.8669 51.0753ZM61.9134 51.3738L62.1181 53.4564C62.1216 53.4963 62.1403 53.5334 62.1704 53.5604C62.2004 53.5874 62.2397 53.6023 62.2805 53.6021L64.3983 53.5119C64.3983 53.7688 64.4547 57.7881 64.4689 58.3712C64.483 58.9543 64.836 66.396 64.8501 66.6112C64.2583 66.8693 63.6873 67.171 63.1417 67.5136C62.0447 67.5556 60.9462 67.5324 59.852 67.4442C59.2712 67.4035 58.6963 67.3035 58.1366 67.1457C58.1366 67.1457 57.8824 59.9748 57.8401 59.1695C57.8048 58.4753 57.353 51.6307 57.3318 51.3461L68.7398 51.0961L68.6692 52.9774L62.4358 53.3106L62.2734 51.4363L61.9134 51.3738Z" fill="black"/>
<path fill-rule="evenodd" clip-rule="evenodd" d="M107.779 66.3053L107.461 65.2363C107.913 65.1877 107.856 64.6532 107.419 64.6532C107.332 64.6454 107.245 64.6717 107.178 64.7263C107.11 64.7808 107.068 64.8593 107.059 64.9447C107.064 65.0228 107.099 65.096 107.156 65.1499C107.214 65.2039 107.29 65.2347 107.369 65.2363L107.059 66.2498L107.779 66.3053ZM127.305 51.7136C127.276 51.8424 127.277 51.976 127.307 52.1045C127.338 52.233 127.397 52.3531 127.481 52.456C127.565 52.5589 127.672 52.642 127.793 52.699C127.914 52.7561 128.046 52.7857 128.18 52.7857C128.315 52.7857 128.447 52.7561 128.568 52.699C128.689 52.642 128.795 52.5589 128.879 52.456C128.963 52.3531 129.023 52.233 129.053 52.1045C129.084 51.976 129.085 51.8424 129.056 51.7136C129.071 51.5914 129.061 51.4673 129.024 51.3495C128.987 51.2317 128.925 51.123 128.842 51.0305C128.76 50.9381 128.658 50.864 128.544 50.8133C128.429 50.7626 128.306 50.7363 128.18 50.7363C128.055 50.7363 127.931 50.7626 127.817 50.8133C127.703 50.864 127.601 50.9381 127.518 51.0305C127.435 51.123 127.373 51.2317 127.337 51.3495C127.3 51.4673 127.289 51.5914 127.305 51.7136ZM127.637 51.7136C127.594 50.6307 128.773 50.6376 128.731 51.7136C128.696 52.6507 127.672 52.6646 127.637 51.7136Z" fill="black"/>
<path fill-rule="evenodd" clip-rule="evenodd" d="M131.231 54.7136C131.231 54.3249 131.041 50.2986 130.998 49.5489C130.928 48.5354 130.864 47.8273 130.864 47.8273C130.865 47.8048 130.859 47.7825 130.847 47.7637C130.834 47.7449 130.815 47.7307 130.794 47.7232L129.968 47.4872C129.961 47.4698 129.95 47.454 129.937 47.4408C129.924 47.4277 129.908 47.4174 129.89 47.4108H129.819L126.473 47.6052C126.456 47.6065 126.44 47.6133 126.427 47.6246C126.414 47.6359 126.406 47.651 126.403 47.6677C126.403 48.3619 126.353 49.7502 126.36 51.1941C126.36 52.0827 126.452 56.4699 126.452 56.4699C126.455 56.5142 126.475 56.5556 126.508 56.5864C126.54 56.6171 126.583 56.635 126.629 56.6365H130.066C130.113 56.6363 130.159 56.619 130.194 56.5879L130.229 56.5393H131.168C131.195 56.5495 131.225 56.5495 131.252 56.5393C131.274 56.5169 131.287 56.4872 131.288 56.456C131.288 56.456 131.259 55.7341 131.231 54.7136ZM126.777 56.2686C126.777 55.8521 126.509 48.2786 126.523 47.7301L129.692 47.6468C129.692 47.7926 129.833 55.5744 129.855 56.2686H126.777ZM130.215 56.3727C130.215 55.8868 129.961 47.7996 129.954 47.6538L130.659 47.9037V49.5628C130.659 50.3889 130.864 54.3388 130.892 54.7275C130.942 55.505 130.991 56.1159 131.012 56.338L130.215 56.3727ZM46.1867 35.0058C46.1513 35.0027 46.1156 35.0072 46.0821 35.0189C46.0487 35.0306 46.0181 35.0493 45.9927 35.0737C45.9672 35.0981 45.9474 35.1276 45.9346 35.1602C45.9218 35.1928 45.9163 35.2277 45.9184 35.2626V35.8457C45.922 35.9176 45.9531 35.9855 46.0055 36.0357C46.0579 36.0859 46.1277 36.1148 46.2008 36.1165C46.2354 36.1165 46.2696 36.1096 46.3014 36.0962C46.3332 36.0828 46.3619 36.0631 46.3857 36.0384C46.4095 36.0137 46.4279 35.9845 46.4398 35.9526C46.4517 35.9206 46.4569 35.8866 46.4549 35.8527C46.4338 35.4778 46.5326 35.0266 46.1867 35.0058ZM85.9946 34.138C85.9946 34.4782 85.8887 34.9155 86.2135 34.9294C86.5382 34.9433 86.4464 34.5268 86.4747 34.2005C86.4788 34.1695 86.4768 34.138 86.4686 34.1078C86.4604 34.0776 86.4462 34.0493 86.4268 34.0245C86.4075 33.9996 86.3834 33.9788 86.3559 33.9632C86.3283 33.9475 86.2979 33.9373 86.2664 33.9332C86.2349 33.9291 86.2029 33.9312 86.1722 33.9393C86.1414 33.9473 86.1126 33.9613 86.0874 33.9803C86.0622 33.9993 86.041 34.023 86.0251 34.0501C86.0091 34.0771 85.9988 34.107 85.9946 34.138ZM89.9903 33.9228C89.9585 33.92 89.9265 33.9235 89.8962 33.9333C89.866 33.9431 89.838 33.9589 89.8142 33.9797C89.7904 34.0006 89.7712 34.026 89.7577 34.0544C89.7443 34.0828 89.7369 34.1136 89.7361 34.145V34.6725C89.7361 34.7351 89.7614 34.7952 89.8064 34.8394C89.8514 34.8837 89.9125 34.9086 89.9761 34.9086C90.0398 34.9086 90.1008 34.8837 90.1459 34.8394C90.1909 34.7952 90.2162 34.7351 90.2162 34.6725V34.1866C90.217 34.1233 90.1946 34.0618 90.1531 34.0134C90.1116 33.965 90.0538 33.9328 89.9903 33.9228Z" fill="black"/>
</svg>
